M48
; DRILL file {KiCad (5.1.8)-1} date 01/15/21 11:06:28
; FORMAT={-:-/ absolute / inch / decimal}
; #@! TF.CreationDate,2021-01-15T11:06:28+00:00
; #@! TF.GenerationSoftware,Kicad,Pcbnew,(5.1.8)-1
FMAT,2
INCH
T1C0.0118
T2C0.0315
T3C0.0354
T4C0.0394
T5C0.0492
T6C0.0512
T7C0.0630
%
G90
G05
T1
X5.695Y-2.835
X5.735Y-2.425
X5.75Y-2.5
X5.78Y-2.285
X5.825Y-2.625
X5.9Y-2.93
X6.005Y-2.965
X6.08Y-2.97
X6.085Y-2.31
X6.295Y-2.855
X6.31Y-3.04
X6.32Y-2.175
X6.33Y-2.925
X6.3456Y-2.705
X6.6Y-2.6
T2
X6.7Y-2.2
X6.7Y-2.3
X6.7Y-2.4
X5.95Y-3.2
X5.95Y-3.3
X5.95Y-3.4
T3
X6.675Y-2.8713
X6.675Y-2.95
X6.675Y-2.5963
X6.675Y-2.675
X5.425Y-2.75
X5.425Y-2.8287
X5.425Y-3.25
X5.425Y-3.3287
T4
X5.4Y-3.025
X5.55Y-3.025
T5
X5.375Y-2.3266
X5.375Y-2.5234
T6
X6.3531Y-3.1281
X6.3531Y-3.5219
X6.55Y-3.325
T7
X6.3531Y-3.325
X6.55Y-3.1281
X6.55Y-3.5219
T0
M30
