%TF.GenerationSoftware,KiCad,Pcbnew,(5.1.8)-1*%
%TF.CreationDate,2021-01-15T14:34:29+00:00*%
%TF.ProjectId,Bat_Listner_JLCPCB,4261745f-4c69-4737-946e-65725f4a4c43,rev?*%
%TF.SameCoordinates,Original*%
%TF.FileFunction,Copper,L2,Bot*%
%TF.FilePolarity,Positive*%
%FSLAX46Y46*%
G04 Gerber Fmt 4.6, Leading zero omitted, Abs format (unit mm)*
G04 Created by KiCad (PCBNEW (5.1.8)-1) date 2021-01-15 14:34:29*
%MOMM*%
%LPD*%
G01*
G04 APERTURE LIST*
%TA.AperFunction,NonConductor*%
%ADD10C,0.300000*%
%TD*%
%TA.AperFunction,ComponentPad*%
%ADD11C,1.350000*%
%TD*%
%TA.AperFunction,ComponentPad*%
%ADD12R,1.350000X1.350000*%
%TD*%
%TA.AperFunction,ComponentPad*%
%ADD13C,1.950000*%
%TD*%
%TA.AperFunction,ComponentPad*%
%ADD14C,1.440000*%
%TD*%
%TA.AperFunction,ComponentPad*%
%ADD15C,2.000000*%
%TD*%
%TA.AperFunction,ViaPad*%
%ADD16C,0.400000*%
%TD*%
%TA.AperFunction,Conductor*%
%ADD17C,0.150000*%
%TD*%
G04 APERTURE END LIST*
D10*
X153265142Y-69282571D02*
X153265142Y-70354000D01*
X153336571Y-70568285D01*
X153479428Y-70711142D01*
X153693714Y-70782571D01*
X153836571Y-70782571D01*
X152765142Y-69282571D02*
X151908000Y-69282571D01*
X152336571Y-70782571D02*
X152336571Y-69282571D01*
D11*
%TO.P,J2,2*%
%TO.N,11*%
X137795000Y-71850000D03*
D12*
%TO.P,J2,1*%
%TO.N,Net-(D1-Pad1)*%
X137795000Y-69850000D03*
%TD*%
%TO.P,J3,1*%
%TO.N,Net-(C14-Pad1)*%
X169545000Y-67945000D03*
D11*
%TO.P,J3,2*%
%TO.N,Net-(D3-Pad2)*%
X169545000Y-65945000D03*
%TD*%
D12*
%TO.P,J5,1*%
%TO.N,Net-(C14-Pad1)*%
X169545000Y-74930000D03*
D11*
%TO.P,J5,2*%
%TO.N,Net-(C16-Pad2)*%
X169545000Y-72930000D03*
%TD*%
D13*
%TO.P,J6,1*%
%TO.N,Net-(J6-Pad1)*%
X166370000Y-84455000D03*
%TO.P,J6,2*%
%TO.N,Net-(C16-Pad1)*%
X161370000Y-79455000D03*
%TO.P,J6,3*%
X161370000Y-89455000D03*
%TD*%
D14*
%TO.P,RV1,3*%
%TO.N,Net-(C14-Pad1)*%
X151130000Y-81280000D03*
%TO.P,RV1,2*%
%TO.N,Net-(R11-Pad1)*%
X151130000Y-83820000D03*
%TO.P,RV1,1*%
%TO.N,Net-(RV1-Pad1)*%
X151130000Y-86360000D03*
%TD*%
%TO.P,RV2,1*%
%TO.N,13*%
X170180000Y-55880000D03*
%TO.P,RV2,2*%
X170180000Y-58420000D03*
%TO.P,RV2,3*%
%TO.N,Net-(C13-Pad2)*%
X170180000Y-60960000D03*
%TD*%
D15*
%TO.P,TP2,1*%
%TO.N,11*%
X140970000Y-76835000D03*
%TD*%
%TO.P,TP1,1*%
%TO.N,4*%
X137160000Y-76835000D03*
%TD*%
D12*
%TO.P,J4,1*%
%TO.N,4*%
X137795000Y-82550000D03*
D11*
%TO.P,J4,2*%
%TO.N,11*%
X137795000Y-84550000D03*
%TD*%
D13*
%TO.P,IC3,1*%
%TO.N,Net-(AT1-Pad2)*%
X136525000Y-59095000D03*
%TO.P,IC3,2*%
%TO.N,Net-(AT1-Pad3)*%
X136525000Y-64095000D03*
%TD*%
D16*
%TO.N,Net-(C14-Pad1)*%
X160274000Y-77216000D03*
X159893000Y-72517000D03*
%TO.N,14*%
X146050000Y-63500000D03*
X160528000Y-55245000D03*
%TO.N,Net-(C16-Pad2)*%
X161178000Y-68707000D03*
X154432000Y-75438000D03*
%TO.N,Net-(D3-Pad2)*%
X160782000Y-74295000D03*
%TO.N,Net-(J6-Pad1)*%
X167640000Y-66040000D03*
%TO.N,4*%
X146812000Y-58039000D03*
X147574000Y-52832000D03*
X157919774Y-53413156D03*
X155194000Y-52070000D03*
%TO.N,11*%
X152527000Y-75311000D03*
X149860000Y-74422000D03*
X154559000Y-58674000D03*
X145669000Y-61595000D03*
X144653000Y-72009000D03*
X147955000Y-66675000D03*
X160528000Y-58928000D03*
X166624000Y-52832000D03*
X151892000Y-53340000D03*
X156464000Y-52070000D03*
%TO.N,3*%
X153670000Y-52324000D03*
X154432000Y-53848000D03*
%TD*%
D17*
%TO.N,Net-(C14-Pad1)*%
X169545000Y-68770000D02*
X171196000Y-70421000D01*
X169545000Y-67945000D02*
X169545000Y-68770000D01*
X170370000Y-74930000D02*
X169545000Y-74930000D01*
X171196000Y-74104000D02*
X170370000Y-74930000D01*
X171196000Y-70421000D02*
X171196000Y-74104000D01*
X151130000Y-81280000D02*
X156210000Y-81280000D01*
X156210000Y-81280000D02*
X160274000Y-77216000D01*
X160074001Y-77016001D02*
X160274000Y-77216000D01*
X159693001Y-76635001D02*
X160074001Y-77016001D01*
X159693001Y-72716999D02*
X159693001Y-76635001D01*
X159893000Y-72517000D02*
X159693001Y-72716999D01*
%TO.N,14*%
X146050000Y-63500000D02*
X152273000Y-63500000D01*
X152273000Y-63500000D02*
X160528000Y-55245000D01*
%TO.N,Net-(C16-Pad2)*%
X161178000Y-68707000D02*
X154447000Y-75438000D01*
X154447000Y-75438000D02*
X154432000Y-75438000D01*
%TO.N,Net-(D3-Pad2)*%
X169132000Y-65945000D02*
X169545000Y-65945000D01*
X160782000Y-74295000D02*
X169132000Y-65945000D01*
%TO.N,Net-(J6-Pad1)*%
X167640000Y-66040000D02*
X169291000Y-64389000D01*
X169395002Y-64389000D02*
X171958000Y-66951998D01*
X169291000Y-64389000D02*
X169395002Y-64389000D01*
X171958000Y-78867000D02*
X166370000Y-84455000D01*
X171958000Y-66951998D02*
X171958000Y-78867000D01*
%TO.N,4*%
X136160001Y-68690999D02*
X146812000Y-58039000D01*
X136160001Y-75835001D02*
X136160001Y-68690999D01*
X137160000Y-76835000D02*
X136160001Y-75835001D01*
X146812000Y-53594000D02*
X146812000Y-58039000D01*
X147574000Y-52832000D02*
X146812000Y-53594000D01*
X156537156Y-53413156D02*
X155194000Y-52070000D01*
X157919774Y-53413156D02*
X156537156Y-53413156D01*
%TO.N,11*%
X140970000Y-81375000D02*
X140970000Y-76835000D01*
X137795000Y-84550000D02*
X140970000Y-81375000D01*
X152527000Y-75311000D02*
X150749000Y-75311000D01*
X150749000Y-75311000D02*
X149860000Y-74422000D01*
X154559000Y-58674000D02*
X151638000Y-61595000D01*
X151638000Y-61595000D02*
X145669000Y-61595000D01*
X144653000Y-72009000D02*
X147955000Y-68707000D01*
X147955000Y-68707000D02*
X147955000Y-66675000D01*
X165354000Y-54102000D02*
X160528000Y-58928000D01*
X166624000Y-52832000D02*
X165354000Y-54102000D01*
X155988999Y-51594999D02*
X156464000Y-52070000D01*
X153637001Y-51594999D02*
X155988999Y-51594999D01*
X151892000Y-53340000D02*
X153637001Y-51594999D01*
%TO.N,3*%
X154432000Y-53086000D02*
X154432000Y-53848000D01*
X153670000Y-52324000D02*
X154432000Y-53086000D01*
%TD*%
M02*
