%TF.GenerationSoftware,KiCad,Pcbnew,(5.1.8)-1*%
%TF.CreationDate,2021-02-07T14:07:47+00:00*%
%TF.ProjectId,Bat_Listner_JLCPCB,4261745f-4c69-4737-946e-65725f4a4c43,rev?*%
%TF.SameCoordinates,Original*%
%TF.FileFunction,Copper,L2,Bot*%
%TF.FilePolarity,Positive*%
%FSLAX46Y46*%
G04 Gerber Fmt 4.6, Leading zero omitted, Abs format (unit mm)*
G04 Created by KiCad (PCBNEW (5.1.8)-1) date 2021-02-07 14:07:47*
%MOMM*%
%LPD*%
G01*
G04 APERTURE LIST*
%TA.AperFunction,NonConductor*%
%ADD10C,0.300000*%
%TD*%
%TA.AperFunction,ComponentPad*%
%ADD11C,2.000000*%
%TD*%
%TA.AperFunction,ComponentPad*%
%ADD12C,1.950000*%
%TD*%
%TA.AperFunction,ComponentPad*%
%ADD13C,1.350000*%
%TD*%
%TA.AperFunction,ComponentPad*%
%ADD14R,1.350000X1.350000*%
%TD*%
%TA.AperFunction,ComponentPad*%
%ADD15C,2.300000*%
%TD*%
%TA.AperFunction,ViaPad*%
%ADD16C,0.400000*%
%TD*%
%TA.AperFunction,Conductor*%
%ADD17C,0.150000*%
%TD*%
%TA.AperFunction,Conductor*%
%ADD18C,0.300000*%
%TD*%
%TA.AperFunction,Conductor*%
%ADD19C,0.254000*%
%TD*%
%TA.AperFunction,Conductor*%
%ADD20C,0.100000*%
%TD*%
G04 APERTURE END LIST*
D10*
X147557142Y-66578571D02*
X147557142Y-67650000D01*
X147628571Y-67864285D01*
X147771428Y-68007142D01*
X147985714Y-68078571D01*
X148128571Y-68078571D01*
X147057142Y-66578571D02*
X146200000Y-66578571D01*
X146628571Y-68078571D02*
X146628571Y-66578571D01*
D11*
%TO.P,GND,1*%
%TO.N,GND*%
X140970000Y-76835000D03*
%TD*%
%TO.P,BATT,1*%
%TO.N,+BATT*%
X137160000Y-76835000D03*
%TD*%
D12*
%TO.P,IC3,1*%
%TO.N,Net-(AT1-Pad2)*%
X136525000Y-59095000D03*
%TO.P,IC3,2*%
%TO.N,Net-(AT1-Pad3)*%
X136525000Y-64095000D03*
%TD*%
D13*
%TO.P,J1,2*%
%TO.N,GND*%
X137600000Y-72000000D03*
D14*
%TO.P,J1,1*%
%TO.N,Net-(D1-Pad1)*%
X137600000Y-70000000D03*
%TD*%
%TO.P,J2,1*%
%TO.N,Net-(C14-Pad1)*%
X167400000Y-71800000D03*
D13*
%TO.P,J2,2*%
%TO.N,Net-(D3-Pad2)*%
X167400000Y-69800000D03*
%TD*%
D15*
%TO.P,J3,A1*%
%TO.N,Net-(J3-PadA1)*%
X164050000Y-87400000D03*
%TO.P,J3,A2*%
%TO.N,Net-(D3-Pad2)*%
X170750000Y-87400000D03*
%TO.P,J3,A3*%
%TO.N,Net-(J3-PadA1)*%
X167550000Y-87400000D03*
%TO.P,J3,B1*%
%TO.N,N/C*%
X164050000Y-81100000D03*
%TO.P,J3,B2*%
X170750000Y-81100000D03*
%TD*%
D14*
%TO.P,J4,1*%
%TO.N,+BATT*%
X137600000Y-84200000D03*
D13*
%TO.P,J4,2*%
%TO.N,GND*%
X137600000Y-86200000D03*
%TD*%
D16*
%TO.N,Net-(C14-Pad1)*%
X160274000Y-77216000D03*
X159893000Y-72517000D03*
%TO.N,14*%
X146050000Y-63500000D03*
X160528000Y-55245000D03*
%TO.N,Net-(D3-Pad2)*%
X160782000Y-74295000D03*
%TO.N,3*%
X153670000Y-52324000D03*
X154432000Y-53848000D03*
%TO.N,+BATT*%
X159200000Y-59000000D03*
X154400000Y-69800000D03*
X145000000Y-50600000D03*
X147600000Y-62600000D03*
%TO.N,GND*%
X154559000Y-58674000D03*
X145669000Y-61595000D03*
X160528000Y-58928000D03*
X166624000Y-52832000D03*
X151892000Y-53340000D03*
X156464000Y-52070000D03*
X142800000Y-60600000D03*
X143000000Y-64800000D03*
X153400000Y-65800000D03*
X163200000Y-67400000D03*
X146200000Y-71200000D03*
X147400000Y-73800000D03*
X148400000Y-76200000D03*
X149600000Y-74200000D03*
X152600000Y-74400000D03*
%TD*%
D17*
%TO.N,Net-(C14-Pad1)*%
X160074001Y-77016001D02*
X160274000Y-77216000D01*
X159693001Y-76635001D02*
X160074001Y-77016001D01*
X159693001Y-72716999D02*
X159693001Y-76635001D01*
X159893000Y-72517000D02*
X159693001Y-72716999D01*
%TO.N,14*%
X146050000Y-63500000D02*
X152273000Y-63500000D01*
X152273000Y-63500000D02*
X160528000Y-55245000D01*
%TO.N,Net-(D3-Pad2)*%
X165277000Y-69800000D02*
X160782000Y-74295000D01*
X167400000Y-69800000D02*
X165277000Y-69800000D01*
%TO.N,3*%
X154432000Y-53086000D02*
X154432000Y-53848000D01*
X153670000Y-52324000D02*
X154432000Y-53086000D01*
D18*
%TO.N,+BATT*%
X137600000Y-77275000D02*
X137160000Y-76835000D01*
X137600000Y-84200000D02*
X137600000Y-77275000D01*
X154400000Y-63800000D02*
X154400000Y-69800000D01*
X159200000Y-59000000D02*
X154400000Y-63800000D01*
X145859998Y-62600000D02*
X147600000Y-62600000D01*
X145000000Y-61740002D02*
X145859998Y-62600000D01*
X145000000Y-50600000D02*
X145000000Y-61740002D01*
D17*
%TO.N,GND*%
X154559000Y-58674000D02*
X151638000Y-61595000D01*
X151638000Y-61595000D02*
X145669000Y-61595000D01*
X165354000Y-54102000D02*
X160528000Y-58928000D01*
X166624000Y-52832000D02*
X165354000Y-54102000D01*
X155988999Y-51594999D02*
X156464000Y-52070000D01*
X153637001Y-51594999D02*
X155988999Y-51594999D01*
X151892000Y-53340000D02*
X153637001Y-51594999D01*
D18*
X147400000Y-73800000D02*
X149400000Y-75800000D01*
%TD*%
D19*
%TO.N,GND*%
X174067001Y-89315000D02*
X131273386Y-89315000D01*
X131241000Y-89282614D01*
X131241000Y-87103400D01*
X136876205Y-87103400D01*
X136932630Y-87334621D01*
X137166808Y-87443017D01*
X137417633Y-87503645D01*
X137675465Y-87514174D01*
X137930398Y-87474200D01*
X138172633Y-87385259D01*
X138267370Y-87334621D01*
X138323795Y-87103400D01*
X137600000Y-86379605D01*
X136876205Y-87103400D01*
X131241000Y-87103400D01*
X131241000Y-76673967D01*
X135525000Y-76673967D01*
X135525000Y-76996033D01*
X135587832Y-77311912D01*
X135711082Y-77609463D01*
X135890013Y-77877252D01*
X136117748Y-78104987D01*
X136385537Y-78283918D01*
X136683088Y-78407168D01*
X136815001Y-78433407D01*
X136815000Y-82897762D01*
X136800518Y-82899188D01*
X136680820Y-82935498D01*
X136570506Y-82994463D01*
X136473815Y-83073815D01*
X136394463Y-83170506D01*
X136335498Y-83280820D01*
X136299188Y-83400518D01*
X136286928Y-83525000D01*
X136286928Y-84875000D01*
X136299188Y-84999482D01*
X136335498Y-85119180D01*
X136394463Y-85229494D01*
X136473815Y-85326185D01*
X136570506Y-85405537D01*
X136680820Y-85464502D01*
X136686668Y-85466276D01*
X136696598Y-85476206D01*
X136465379Y-85532630D01*
X136356983Y-85766808D01*
X136296355Y-86017633D01*
X136285826Y-86275465D01*
X136325800Y-86530398D01*
X136414741Y-86772633D01*
X136465379Y-86867370D01*
X136696600Y-86923795D01*
X137420395Y-86200000D01*
X137406253Y-86185858D01*
X137585858Y-86006253D01*
X137600000Y-86020395D01*
X137614143Y-86006253D01*
X137793748Y-86185858D01*
X137779605Y-86200000D01*
X138503400Y-86923795D01*
X138734621Y-86867370D01*
X138843017Y-86633192D01*
X138903645Y-86382367D01*
X138914174Y-86124535D01*
X138874200Y-85869602D01*
X138785259Y-85627367D01*
X138734621Y-85532630D01*
X138503402Y-85476206D01*
X138513332Y-85466276D01*
X138519180Y-85464502D01*
X138629494Y-85405537D01*
X138726185Y-85326185D01*
X138805537Y-85229494D01*
X138864502Y-85119180D01*
X138900812Y-84999482D01*
X138913072Y-84875000D01*
X138913072Y-83525000D01*
X138900812Y-83400518D01*
X138864502Y-83280820D01*
X138805537Y-83170506D01*
X138726185Y-83073815D01*
X138629494Y-82994463D01*
X138519180Y-82935498D01*
X138399482Y-82899188D01*
X138385000Y-82897762D01*
X138385000Y-80924193D01*
X162265000Y-80924193D01*
X162265000Y-81275807D01*
X162333596Y-81620665D01*
X162468153Y-81945515D01*
X162663500Y-82237871D01*
X162912129Y-82486500D01*
X163204485Y-82681847D01*
X163529335Y-82816404D01*
X163715473Y-82853429D01*
X163631426Y-82870147D01*
X163370273Y-82978320D01*
X163135241Y-83135363D01*
X162935363Y-83335241D01*
X162778320Y-83570273D01*
X162670147Y-83831426D01*
X162615000Y-84108665D01*
X162615000Y-84391335D01*
X162670147Y-84668574D01*
X162778320Y-84929727D01*
X162935363Y-85164759D01*
X163135241Y-85364637D01*
X163370273Y-85521680D01*
X163631426Y-85629853D01*
X163715473Y-85646571D01*
X163529335Y-85683596D01*
X163204485Y-85818153D01*
X162912129Y-86013500D01*
X162663500Y-86262129D01*
X162468153Y-86554485D01*
X162333596Y-86879335D01*
X162265000Y-87224193D01*
X162265000Y-87575807D01*
X162333596Y-87920665D01*
X162468153Y-88245515D01*
X162663500Y-88537871D01*
X162912129Y-88786500D01*
X163204485Y-88981847D01*
X163529335Y-89116404D01*
X163874193Y-89185000D01*
X164225807Y-89185000D01*
X164570665Y-89116404D01*
X164895515Y-88981847D01*
X165187871Y-88786500D01*
X165436500Y-88537871D01*
X165631847Y-88245515D01*
X165766404Y-87920665D01*
X165800000Y-87751765D01*
X165833596Y-87920665D01*
X165968153Y-88245515D01*
X166163500Y-88537871D01*
X166412129Y-88786500D01*
X166704485Y-88981847D01*
X167029335Y-89116404D01*
X167374193Y-89185000D01*
X167725807Y-89185000D01*
X168070665Y-89116404D01*
X168395515Y-88981847D01*
X168687871Y-88786500D01*
X168936500Y-88537871D01*
X169131847Y-88245515D01*
X169150000Y-88201690D01*
X169168153Y-88245515D01*
X169363500Y-88537871D01*
X169612129Y-88786500D01*
X169904485Y-88981847D01*
X170229335Y-89116404D01*
X170574193Y-89185000D01*
X170925807Y-89185000D01*
X171270665Y-89116404D01*
X171595515Y-88981847D01*
X171887871Y-88786500D01*
X172136500Y-88537871D01*
X172331847Y-88245515D01*
X172466404Y-87920665D01*
X172535000Y-87575807D01*
X172535000Y-87224193D01*
X172466404Y-86879335D01*
X172331847Y-86554485D01*
X172136500Y-86262129D01*
X171887871Y-86013500D01*
X171595515Y-85818153D01*
X171270665Y-85683596D01*
X171084527Y-85646571D01*
X171168574Y-85629853D01*
X171429727Y-85521680D01*
X171664759Y-85364637D01*
X171864637Y-85164759D01*
X172021680Y-84929727D01*
X172129853Y-84668574D01*
X172185000Y-84391335D01*
X172185000Y-84108665D01*
X172129853Y-83831426D01*
X172021680Y-83570273D01*
X171864637Y-83335241D01*
X171664759Y-83135363D01*
X171429727Y-82978320D01*
X171168574Y-82870147D01*
X171084527Y-82853429D01*
X171270665Y-82816404D01*
X171595515Y-82681847D01*
X171887871Y-82486500D01*
X172136500Y-82237871D01*
X172331847Y-81945515D01*
X172466404Y-81620665D01*
X172535000Y-81275807D01*
X172535000Y-80924193D01*
X172466404Y-80579335D01*
X172331847Y-80254485D01*
X172136500Y-79962129D01*
X171887871Y-79713500D01*
X171595515Y-79518153D01*
X171270665Y-79383596D01*
X170925807Y-79315000D01*
X170574193Y-79315000D01*
X170229335Y-79383596D01*
X169904485Y-79518153D01*
X169612129Y-79713500D01*
X169363500Y-79962129D01*
X169168153Y-80254485D01*
X169033596Y-80579335D01*
X168965000Y-80924193D01*
X168965000Y-81275807D01*
X169033596Y-81620665D01*
X169168153Y-81945515D01*
X169363500Y-82237871D01*
X169612129Y-82486500D01*
X169904485Y-82681847D01*
X170229335Y-82816404D01*
X170415473Y-82853429D01*
X170331426Y-82870147D01*
X170070273Y-82978320D01*
X169835241Y-83135363D01*
X169635363Y-83335241D01*
X169478320Y-83570273D01*
X169370147Y-83831426D01*
X169315000Y-84108665D01*
X169315000Y-84391335D01*
X169370147Y-84668574D01*
X169478320Y-84929727D01*
X169635363Y-85164759D01*
X169835241Y-85364637D01*
X170070273Y-85521680D01*
X170331426Y-85629853D01*
X170415473Y-85646571D01*
X170229335Y-85683596D01*
X169904485Y-85818153D01*
X169612129Y-86013500D01*
X169363500Y-86262129D01*
X169168153Y-86554485D01*
X169150000Y-86598310D01*
X169131847Y-86554485D01*
X168936500Y-86262129D01*
X168687871Y-86013500D01*
X168395515Y-85818153D01*
X168070665Y-85683596D01*
X167725807Y-85615000D01*
X167374193Y-85615000D01*
X167029335Y-85683596D01*
X166704485Y-85818153D01*
X166412129Y-86013500D01*
X166163500Y-86262129D01*
X165968153Y-86554485D01*
X165833596Y-86879335D01*
X165800000Y-87048235D01*
X165766404Y-86879335D01*
X165631847Y-86554485D01*
X165436500Y-86262129D01*
X165187871Y-86013500D01*
X164895515Y-85818153D01*
X164570665Y-85683596D01*
X164384527Y-85646571D01*
X164468574Y-85629853D01*
X164729727Y-85521680D01*
X164964759Y-85364637D01*
X165164637Y-85164759D01*
X165321680Y-84929727D01*
X165429853Y-84668574D01*
X165485000Y-84391335D01*
X165485000Y-84108665D01*
X165429853Y-83831426D01*
X165321680Y-83570273D01*
X165164637Y-83335241D01*
X164964759Y-83135363D01*
X164729727Y-82978320D01*
X164468574Y-82870147D01*
X164384527Y-82853429D01*
X164570665Y-82816404D01*
X164895515Y-82681847D01*
X165187871Y-82486500D01*
X165436500Y-82237871D01*
X165631847Y-81945515D01*
X165766404Y-81620665D01*
X165835000Y-81275807D01*
X165835000Y-80924193D01*
X165766404Y-80579335D01*
X165631847Y-80254485D01*
X165436500Y-79962129D01*
X165187871Y-79713500D01*
X164895515Y-79518153D01*
X164570665Y-79383596D01*
X164225807Y-79315000D01*
X163874193Y-79315000D01*
X163529335Y-79383596D01*
X163204485Y-79518153D01*
X162912129Y-79713500D01*
X162663500Y-79962129D01*
X162468153Y-80254485D01*
X162333596Y-80579335D01*
X162265000Y-80924193D01*
X138385000Y-80924193D01*
X138385000Y-77970413D01*
X140014192Y-77970413D01*
X140109956Y-78234814D01*
X140399571Y-78375704D01*
X140711108Y-78457384D01*
X141032595Y-78476718D01*
X141351675Y-78432961D01*
X141656088Y-78327795D01*
X141830044Y-78234814D01*
X141925808Y-77970413D01*
X140970000Y-77014605D01*
X140014192Y-77970413D01*
X138385000Y-77970413D01*
X138385000Y-77922239D01*
X138429987Y-77877252D01*
X138608918Y-77609463D01*
X138732168Y-77311912D01*
X138795000Y-76996033D01*
X138795000Y-76897595D01*
X139328282Y-76897595D01*
X139372039Y-77216675D01*
X139477205Y-77521088D01*
X139570186Y-77695044D01*
X139834587Y-77790808D01*
X140790395Y-76835000D01*
X141149605Y-76835000D01*
X142105413Y-77790808D01*
X142369814Y-77695044D01*
X142510704Y-77405429D01*
X142592384Y-77093892D01*
X142611718Y-76772405D01*
X142567961Y-76453325D01*
X142462795Y-76148912D01*
X142369814Y-75974956D01*
X142105413Y-75879192D01*
X141149605Y-76835000D01*
X140790395Y-76835000D01*
X139834587Y-75879192D01*
X139570186Y-75974956D01*
X139429296Y-76264571D01*
X139347616Y-76576108D01*
X139328282Y-76897595D01*
X138795000Y-76897595D01*
X138795000Y-76673967D01*
X138732168Y-76358088D01*
X138608918Y-76060537D01*
X138429987Y-75792748D01*
X138336826Y-75699587D01*
X140014192Y-75699587D01*
X140970000Y-76655395D01*
X141925808Y-75699587D01*
X141830044Y-75435186D01*
X141540429Y-75294296D01*
X141228892Y-75212616D01*
X140907405Y-75193282D01*
X140588325Y-75237039D01*
X140283912Y-75342205D01*
X140109956Y-75435186D01*
X140014192Y-75699587D01*
X138336826Y-75699587D01*
X138202252Y-75565013D01*
X137934463Y-75386082D01*
X137636912Y-75262832D01*
X137321033Y-75200000D01*
X136998967Y-75200000D01*
X136683088Y-75262832D01*
X136385537Y-75386082D01*
X136117748Y-75565013D01*
X135890013Y-75792748D01*
X135711082Y-76060537D01*
X135587832Y-76358088D01*
X135525000Y-76673967D01*
X131241000Y-76673967D01*
X131241000Y-72903400D01*
X136876205Y-72903400D01*
X136932630Y-73134621D01*
X137166808Y-73243017D01*
X137417633Y-73303645D01*
X137675465Y-73314174D01*
X137930398Y-73274200D01*
X138172633Y-73185259D01*
X138267370Y-73134621D01*
X138323795Y-72903400D01*
X137600000Y-72179605D01*
X136876205Y-72903400D01*
X131241000Y-72903400D01*
X131241000Y-72075465D01*
X136285826Y-72075465D01*
X136325800Y-72330398D01*
X136414741Y-72572633D01*
X136465379Y-72667370D01*
X136696600Y-72723795D01*
X137420395Y-72000000D01*
X137406253Y-71985858D01*
X137585858Y-71806253D01*
X137600000Y-71820395D01*
X137614143Y-71806253D01*
X137793748Y-71985858D01*
X137779605Y-72000000D01*
X138503400Y-72723795D01*
X138531248Y-72716999D01*
X158979566Y-72716999D01*
X158983001Y-72751874D01*
X158983002Y-76600116D01*
X158979566Y-76635001D01*
X158993275Y-76774185D01*
X159033873Y-76908020D01*
X159068681Y-76973140D01*
X159099802Y-77031364D01*
X159188527Y-77139476D01*
X159215618Y-77161709D01*
X159460566Y-77406657D01*
X159471089Y-77459560D01*
X159534033Y-77611521D01*
X159625413Y-77748281D01*
X159741719Y-77864587D01*
X159878479Y-77955967D01*
X160030440Y-78018911D01*
X160191760Y-78051000D01*
X160356240Y-78051000D01*
X160517560Y-78018911D01*
X160669521Y-77955967D01*
X160806281Y-77864587D01*
X160922587Y-77748281D01*
X161013967Y-77611521D01*
X161076911Y-77459560D01*
X161109000Y-77298240D01*
X161109000Y-77133760D01*
X161076911Y-76972440D01*
X161013967Y-76820479D01*
X160922587Y-76683719D01*
X160806281Y-76567413D01*
X160669521Y-76476033D01*
X160517560Y-76413089D01*
X160464657Y-76402566D01*
X160403001Y-76340910D01*
X160403001Y-75041811D01*
X160538440Y-75097911D01*
X160699760Y-75130000D01*
X160864240Y-75130000D01*
X161025560Y-75097911D01*
X161177521Y-75034967D01*
X161314281Y-74943587D01*
X161430587Y-74827281D01*
X161521967Y-74690521D01*
X161584911Y-74538560D01*
X161595434Y-74485657D01*
X165571092Y-70510000D01*
X166298883Y-70510000D01*
X166360697Y-70602513D01*
X166273815Y-70673815D01*
X166194463Y-70770506D01*
X166135498Y-70880820D01*
X166099188Y-71000518D01*
X166086928Y-71125000D01*
X166086928Y-72475000D01*
X166099188Y-72599482D01*
X166135498Y-72719180D01*
X166194463Y-72829494D01*
X166273815Y-72926185D01*
X166370506Y-73005537D01*
X166480820Y-73064502D01*
X166600518Y-73100812D01*
X166725000Y-73113072D01*
X168075000Y-73113072D01*
X168199482Y-73100812D01*
X168319180Y-73064502D01*
X168429494Y-73005537D01*
X168526185Y-72926185D01*
X168605537Y-72829494D01*
X168664502Y-72719180D01*
X168700812Y-72599482D01*
X168713072Y-72475000D01*
X168713072Y-71125000D01*
X168700812Y-71000518D01*
X168664502Y-70880820D01*
X168605537Y-70770506D01*
X168526185Y-70673815D01*
X168439303Y-70602513D01*
X168560907Y-70420518D01*
X168659658Y-70182113D01*
X168710000Y-69929024D01*
X168710000Y-69670976D01*
X168659658Y-69417887D01*
X168560907Y-69179482D01*
X168417544Y-68964923D01*
X168235077Y-68782456D01*
X168020518Y-68639093D01*
X167782113Y-68540342D01*
X167529024Y-68490000D01*
X167270976Y-68490000D01*
X167017887Y-68540342D01*
X166779482Y-68639093D01*
X166564923Y-68782456D01*
X166382456Y-68964923D01*
X166298883Y-69090000D01*
X165311875Y-69090000D01*
X165277000Y-69086565D01*
X165242125Y-69090000D01*
X165242123Y-69090000D01*
X165137816Y-69100273D01*
X165003980Y-69140872D01*
X164880637Y-69206800D01*
X164772525Y-69295525D01*
X164750292Y-69322616D01*
X160591343Y-73481566D01*
X160538440Y-73492089D01*
X160403001Y-73548189D01*
X160403001Y-73180474D01*
X160425281Y-73165587D01*
X160541587Y-73049281D01*
X160632967Y-72912521D01*
X160695911Y-72760560D01*
X160728000Y-72599240D01*
X160728000Y-72434760D01*
X160695911Y-72273440D01*
X160632967Y-72121479D01*
X160541587Y-71984719D01*
X160425281Y-71868413D01*
X160288521Y-71777033D01*
X160136560Y-71714089D01*
X159975240Y-71682000D01*
X159810760Y-71682000D01*
X159649440Y-71714089D01*
X159497479Y-71777033D01*
X159360719Y-71868413D01*
X159244413Y-71984719D01*
X159153033Y-72121479D01*
X159090089Y-72273440D01*
X159069380Y-72377552D01*
X159033873Y-72443980D01*
X158993274Y-72577816D01*
X158985556Y-72656185D01*
X158979566Y-72716999D01*
X138531248Y-72716999D01*
X138734621Y-72667370D01*
X138843017Y-72433192D01*
X138903645Y-72182367D01*
X138914174Y-71924535D01*
X138874200Y-71669602D01*
X138785259Y-71427367D01*
X138734621Y-71332630D01*
X138503402Y-71276206D01*
X138513332Y-71266276D01*
X138519180Y-71264502D01*
X138629494Y-71205537D01*
X138726185Y-71126185D01*
X138805537Y-71029494D01*
X138864502Y-70919180D01*
X138900812Y-70799482D01*
X138913072Y-70675000D01*
X138913072Y-69717760D01*
X153565000Y-69717760D01*
X153565000Y-69882240D01*
X153597089Y-70043560D01*
X153660033Y-70195521D01*
X153751413Y-70332281D01*
X153867719Y-70448587D01*
X154004479Y-70539967D01*
X154156440Y-70602911D01*
X154317760Y-70635000D01*
X154482240Y-70635000D01*
X154643560Y-70602911D01*
X154795521Y-70539967D01*
X154932281Y-70448587D01*
X155048587Y-70332281D01*
X155139967Y-70195521D01*
X155202911Y-70043560D01*
X155235000Y-69882240D01*
X155235000Y-69717760D01*
X155202911Y-69556440D01*
X155185000Y-69513199D01*
X155185000Y-64125157D01*
X159552280Y-59757878D01*
X159595521Y-59739967D01*
X159732281Y-59648587D01*
X159848587Y-59532281D01*
X159939967Y-59395521D01*
X160002911Y-59243560D01*
X160035000Y-59082240D01*
X160035000Y-58917760D01*
X160002911Y-58756440D01*
X159939967Y-58604479D01*
X159848587Y-58467719D01*
X159732281Y-58351413D01*
X159595521Y-58260033D01*
X159443560Y-58197089D01*
X159282240Y-58165000D01*
X159117760Y-58165000D01*
X158956440Y-58197089D01*
X158804479Y-58260033D01*
X158667719Y-58351413D01*
X158551413Y-58467719D01*
X158460033Y-58604479D01*
X158442122Y-58647720D01*
X153872190Y-63217653D01*
X153842236Y-63242236D01*
X153744138Y-63361768D01*
X153671246Y-63498141D01*
X153626359Y-63646114D01*
X153615000Y-63761440D01*
X153615000Y-63761447D01*
X153611203Y-63800000D01*
X153615000Y-63838553D01*
X153615001Y-69513197D01*
X153597089Y-69556440D01*
X153565000Y-69717760D01*
X138913072Y-69717760D01*
X138913072Y-69325000D01*
X138900812Y-69200518D01*
X138864502Y-69080820D01*
X138805537Y-68970506D01*
X138726185Y-68873815D01*
X138629494Y-68794463D01*
X138519180Y-68735498D01*
X138399482Y-68699188D01*
X138275000Y-68686928D01*
X136925000Y-68686928D01*
X136800518Y-68699188D01*
X136680820Y-68735498D01*
X136570506Y-68794463D01*
X136473815Y-68873815D01*
X136394463Y-68970506D01*
X136335498Y-69080820D01*
X136299188Y-69200518D01*
X136286928Y-69325000D01*
X136286928Y-70675000D01*
X136299188Y-70799482D01*
X136335498Y-70919180D01*
X136394463Y-71029494D01*
X136473815Y-71126185D01*
X136570506Y-71205537D01*
X136680820Y-71264502D01*
X136686668Y-71266276D01*
X136696598Y-71276206D01*
X136465379Y-71332630D01*
X136356983Y-71566808D01*
X136296355Y-71817633D01*
X136285826Y-72075465D01*
X131241000Y-72075465D01*
X131241000Y-63936429D01*
X134915000Y-63936429D01*
X134915000Y-64253571D01*
X134976871Y-64564620D01*
X135098237Y-64857621D01*
X135274431Y-65121315D01*
X135498685Y-65345569D01*
X135762379Y-65521763D01*
X136055380Y-65643129D01*
X136366429Y-65705000D01*
X136683571Y-65705000D01*
X136994620Y-65643129D01*
X137074599Y-65610000D01*
X145272143Y-65610000D01*
X145272143Y-69430000D01*
X149127857Y-69430000D01*
X149127857Y-65610000D01*
X145272143Y-65610000D01*
X137074599Y-65610000D01*
X137287621Y-65521763D01*
X137551315Y-65345569D01*
X137775569Y-65121315D01*
X137951763Y-64857621D01*
X138073129Y-64564620D01*
X138135000Y-64253571D01*
X138135000Y-63936429D01*
X138073129Y-63625380D01*
X137951763Y-63332379D01*
X137775569Y-63068685D01*
X137551315Y-62844431D01*
X137287621Y-62668237D01*
X136994620Y-62546871D01*
X136683571Y-62485000D01*
X136366429Y-62485000D01*
X136055380Y-62546871D01*
X135762379Y-62668237D01*
X135498685Y-62844431D01*
X135274431Y-63068685D01*
X135098237Y-63332379D01*
X134976871Y-63625380D01*
X134915000Y-63936429D01*
X131241000Y-63936429D01*
X131241000Y-58936429D01*
X134915000Y-58936429D01*
X134915000Y-59253571D01*
X134976871Y-59564620D01*
X135098237Y-59857621D01*
X135274431Y-60121315D01*
X135498685Y-60345569D01*
X135762379Y-60521763D01*
X136055380Y-60643129D01*
X136366429Y-60705000D01*
X136683571Y-60705000D01*
X136994620Y-60643129D01*
X137287621Y-60521763D01*
X137551315Y-60345569D01*
X137775569Y-60121315D01*
X137951763Y-59857621D01*
X138073129Y-59564620D01*
X138135000Y-59253571D01*
X138135000Y-58936429D01*
X138073129Y-58625380D01*
X137951763Y-58332379D01*
X137775569Y-58068685D01*
X137551315Y-57844431D01*
X137287621Y-57668237D01*
X136994620Y-57546871D01*
X136683571Y-57485000D01*
X136366429Y-57485000D01*
X136055380Y-57546871D01*
X135762379Y-57668237D01*
X135498685Y-57844431D01*
X135274431Y-58068685D01*
X135098237Y-58332379D01*
X134976871Y-58625380D01*
X134915000Y-58936429D01*
X131241000Y-58936429D01*
X131241000Y-50517760D01*
X144165000Y-50517760D01*
X144165000Y-50682240D01*
X144197089Y-50843560D01*
X144215000Y-50886801D01*
X144215001Y-61701439D01*
X144211203Y-61740002D01*
X144226359Y-61893888D01*
X144271246Y-62041861D01*
X144287456Y-62072188D01*
X144344139Y-62178235D01*
X144384690Y-62227646D01*
X144417655Y-62267814D01*
X144417659Y-62267818D01*
X144442237Y-62297766D01*
X144472185Y-62322344D01*
X145277651Y-63127810D01*
X145292749Y-63146207D01*
X145247089Y-63256440D01*
X145215000Y-63417760D01*
X145215000Y-63582240D01*
X145247089Y-63743560D01*
X145310033Y-63895521D01*
X145401413Y-64032281D01*
X145517719Y-64148587D01*
X145654479Y-64239967D01*
X145806440Y-64302911D01*
X145967760Y-64335000D01*
X146132240Y-64335000D01*
X146293560Y-64302911D01*
X146445521Y-64239967D01*
X146490370Y-64210000D01*
X152238125Y-64210000D01*
X152273000Y-64213435D01*
X152307875Y-64210000D01*
X152307877Y-64210000D01*
X152412184Y-64199727D01*
X152546020Y-64159128D01*
X152669363Y-64093200D01*
X152777475Y-64004475D01*
X152799712Y-63977379D01*
X160718658Y-56058434D01*
X160771560Y-56047911D01*
X160923521Y-55984967D01*
X161060281Y-55893587D01*
X161176587Y-55777281D01*
X161267967Y-55640521D01*
X161330911Y-55488560D01*
X161363000Y-55327240D01*
X161363000Y-55162760D01*
X161330911Y-55001440D01*
X161267967Y-54849479D01*
X161176587Y-54712719D01*
X161060281Y-54596413D01*
X160923521Y-54505033D01*
X160771560Y-54442089D01*
X160610240Y-54410000D01*
X160445760Y-54410000D01*
X160284440Y-54442089D01*
X160132479Y-54505033D01*
X159995719Y-54596413D01*
X159879413Y-54712719D01*
X159788033Y-54849479D01*
X159725089Y-55001440D01*
X159714566Y-55054342D01*
X151978909Y-62790000D01*
X148413565Y-62790000D01*
X148435000Y-62682240D01*
X148435000Y-62517760D01*
X148402911Y-62356440D01*
X148339967Y-62204479D01*
X148248587Y-62067719D01*
X148132281Y-61951413D01*
X147995521Y-61860033D01*
X147843560Y-61797089D01*
X147682240Y-61765000D01*
X147517760Y-61765000D01*
X147356440Y-61797089D01*
X147313199Y-61815000D01*
X146185155Y-61815000D01*
X145785000Y-61414845D01*
X145785000Y-52241760D01*
X152835000Y-52241760D01*
X152835000Y-52406240D01*
X152867089Y-52567560D01*
X152930033Y-52719521D01*
X153021413Y-52856281D01*
X153137719Y-52972587D01*
X153274479Y-53063967D01*
X153426440Y-53126911D01*
X153479343Y-53137434D01*
X153722000Y-53380091D01*
X153722000Y-53407630D01*
X153692033Y-53452479D01*
X153629089Y-53604440D01*
X153597000Y-53765760D01*
X153597000Y-53930240D01*
X153629089Y-54091560D01*
X153692033Y-54243521D01*
X153783413Y-54380281D01*
X153899719Y-54496587D01*
X154036479Y-54587967D01*
X154188440Y-54650911D01*
X154349760Y-54683000D01*
X154514240Y-54683000D01*
X154675560Y-54650911D01*
X154827521Y-54587967D01*
X154964281Y-54496587D01*
X155080587Y-54380281D01*
X155171967Y-54243521D01*
X155234911Y-54091560D01*
X155267000Y-53930240D01*
X155267000Y-53765760D01*
X155234911Y-53604440D01*
X155171967Y-53452479D01*
X155142000Y-53407630D01*
X155142000Y-53120875D01*
X155145435Y-53086000D01*
X155142000Y-53051123D01*
X155131727Y-52946816D01*
X155091128Y-52812980D01*
X155025200Y-52689637D01*
X154936474Y-52581525D01*
X154909383Y-52559292D01*
X154483434Y-52133343D01*
X154472911Y-52080440D01*
X154409967Y-51928479D01*
X154318587Y-51791719D01*
X154202281Y-51675413D01*
X154065521Y-51584033D01*
X153913560Y-51521089D01*
X153752240Y-51489000D01*
X153587760Y-51489000D01*
X153426440Y-51521089D01*
X153274479Y-51584033D01*
X153137719Y-51675413D01*
X153021413Y-51791719D01*
X152930033Y-51928479D01*
X152867089Y-52080440D01*
X152835000Y-52241760D01*
X145785000Y-52241760D01*
X145785000Y-50886801D01*
X145802911Y-50843560D01*
X145835000Y-50682240D01*
X145835000Y-50517760D01*
X145802911Y-50356440D01*
X145739967Y-50204479D01*
X145648587Y-50067719D01*
X145532281Y-49951413D01*
X145395521Y-49860033D01*
X145243560Y-49797089D01*
X145082240Y-49765000D01*
X144917760Y-49765000D01*
X144756440Y-49797089D01*
X144604479Y-49860033D01*
X144467719Y-49951413D01*
X144351413Y-50067719D01*
X144260033Y-50204479D01*
X144197089Y-50356440D01*
X144165000Y-50517760D01*
X131241000Y-50517760D01*
X131241000Y-45917386D01*
X131261386Y-45897000D01*
X174067000Y-45897000D01*
X174067001Y-89315000D01*
%TA.AperFunction,Conductor*%
D20*
G36*
X174067001Y-89315000D02*
G01*
X131273386Y-89315000D01*
X131241000Y-89282614D01*
X131241000Y-87103400D01*
X136876205Y-87103400D01*
X136932630Y-87334621D01*
X137166808Y-87443017D01*
X137417633Y-87503645D01*
X137675465Y-87514174D01*
X137930398Y-87474200D01*
X138172633Y-87385259D01*
X138267370Y-87334621D01*
X138323795Y-87103400D01*
X137600000Y-86379605D01*
X136876205Y-87103400D01*
X131241000Y-87103400D01*
X131241000Y-76673967D01*
X135525000Y-76673967D01*
X135525000Y-76996033D01*
X135587832Y-77311912D01*
X135711082Y-77609463D01*
X135890013Y-77877252D01*
X136117748Y-78104987D01*
X136385537Y-78283918D01*
X136683088Y-78407168D01*
X136815001Y-78433407D01*
X136815000Y-82897762D01*
X136800518Y-82899188D01*
X136680820Y-82935498D01*
X136570506Y-82994463D01*
X136473815Y-83073815D01*
X136394463Y-83170506D01*
X136335498Y-83280820D01*
X136299188Y-83400518D01*
X136286928Y-83525000D01*
X136286928Y-84875000D01*
X136299188Y-84999482D01*
X136335498Y-85119180D01*
X136394463Y-85229494D01*
X136473815Y-85326185D01*
X136570506Y-85405537D01*
X136680820Y-85464502D01*
X136686668Y-85466276D01*
X136696598Y-85476206D01*
X136465379Y-85532630D01*
X136356983Y-85766808D01*
X136296355Y-86017633D01*
X136285826Y-86275465D01*
X136325800Y-86530398D01*
X136414741Y-86772633D01*
X136465379Y-86867370D01*
X136696600Y-86923795D01*
X137420395Y-86200000D01*
X137406253Y-86185858D01*
X137585858Y-86006253D01*
X137600000Y-86020395D01*
X137614143Y-86006253D01*
X137793748Y-86185858D01*
X137779605Y-86200000D01*
X138503400Y-86923795D01*
X138734621Y-86867370D01*
X138843017Y-86633192D01*
X138903645Y-86382367D01*
X138914174Y-86124535D01*
X138874200Y-85869602D01*
X138785259Y-85627367D01*
X138734621Y-85532630D01*
X138503402Y-85476206D01*
X138513332Y-85466276D01*
X138519180Y-85464502D01*
X138629494Y-85405537D01*
X138726185Y-85326185D01*
X138805537Y-85229494D01*
X138864502Y-85119180D01*
X138900812Y-84999482D01*
X138913072Y-84875000D01*
X138913072Y-83525000D01*
X138900812Y-83400518D01*
X138864502Y-83280820D01*
X138805537Y-83170506D01*
X138726185Y-83073815D01*
X138629494Y-82994463D01*
X138519180Y-82935498D01*
X138399482Y-82899188D01*
X138385000Y-82897762D01*
X138385000Y-80924193D01*
X162265000Y-80924193D01*
X162265000Y-81275807D01*
X162333596Y-81620665D01*
X162468153Y-81945515D01*
X162663500Y-82237871D01*
X162912129Y-82486500D01*
X163204485Y-82681847D01*
X163529335Y-82816404D01*
X163715473Y-82853429D01*
X163631426Y-82870147D01*
X163370273Y-82978320D01*
X163135241Y-83135363D01*
X162935363Y-83335241D01*
X162778320Y-83570273D01*
X162670147Y-83831426D01*
X162615000Y-84108665D01*
X162615000Y-84391335D01*
X162670147Y-84668574D01*
X162778320Y-84929727D01*
X162935363Y-85164759D01*
X163135241Y-85364637D01*
X163370273Y-85521680D01*
X163631426Y-85629853D01*
X163715473Y-85646571D01*
X163529335Y-85683596D01*
X163204485Y-85818153D01*
X162912129Y-86013500D01*
X162663500Y-86262129D01*
X162468153Y-86554485D01*
X162333596Y-86879335D01*
X162265000Y-87224193D01*
X162265000Y-87575807D01*
X162333596Y-87920665D01*
X162468153Y-88245515D01*
X162663500Y-88537871D01*
X162912129Y-88786500D01*
X163204485Y-88981847D01*
X163529335Y-89116404D01*
X163874193Y-89185000D01*
X164225807Y-89185000D01*
X164570665Y-89116404D01*
X164895515Y-88981847D01*
X165187871Y-88786500D01*
X165436500Y-88537871D01*
X165631847Y-88245515D01*
X165766404Y-87920665D01*
X165800000Y-87751765D01*
X165833596Y-87920665D01*
X165968153Y-88245515D01*
X166163500Y-88537871D01*
X166412129Y-88786500D01*
X166704485Y-88981847D01*
X167029335Y-89116404D01*
X167374193Y-89185000D01*
X167725807Y-89185000D01*
X168070665Y-89116404D01*
X168395515Y-88981847D01*
X168687871Y-88786500D01*
X168936500Y-88537871D01*
X169131847Y-88245515D01*
X169150000Y-88201690D01*
X169168153Y-88245515D01*
X169363500Y-88537871D01*
X169612129Y-88786500D01*
X169904485Y-88981847D01*
X170229335Y-89116404D01*
X170574193Y-89185000D01*
X170925807Y-89185000D01*
X171270665Y-89116404D01*
X171595515Y-88981847D01*
X171887871Y-88786500D01*
X172136500Y-88537871D01*
X172331847Y-88245515D01*
X172466404Y-87920665D01*
X172535000Y-87575807D01*
X172535000Y-87224193D01*
X172466404Y-86879335D01*
X172331847Y-86554485D01*
X172136500Y-86262129D01*
X171887871Y-86013500D01*
X171595515Y-85818153D01*
X171270665Y-85683596D01*
X171084527Y-85646571D01*
X171168574Y-85629853D01*
X171429727Y-85521680D01*
X171664759Y-85364637D01*
X171864637Y-85164759D01*
X172021680Y-84929727D01*
X172129853Y-84668574D01*
X172185000Y-84391335D01*
X172185000Y-84108665D01*
X172129853Y-83831426D01*
X172021680Y-83570273D01*
X171864637Y-83335241D01*
X171664759Y-83135363D01*
X171429727Y-82978320D01*
X171168574Y-82870147D01*
X171084527Y-82853429D01*
X171270665Y-82816404D01*
X171595515Y-82681847D01*
X171887871Y-82486500D01*
X172136500Y-82237871D01*
X172331847Y-81945515D01*
X172466404Y-81620665D01*
X172535000Y-81275807D01*
X172535000Y-80924193D01*
X172466404Y-80579335D01*
X172331847Y-80254485D01*
X172136500Y-79962129D01*
X171887871Y-79713500D01*
X171595515Y-79518153D01*
X171270665Y-79383596D01*
X170925807Y-79315000D01*
X170574193Y-79315000D01*
X170229335Y-79383596D01*
X169904485Y-79518153D01*
X169612129Y-79713500D01*
X169363500Y-79962129D01*
X169168153Y-80254485D01*
X169033596Y-80579335D01*
X168965000Y-80924193D01*
X168965000Y-81275807D01*
X169033596Y-81620665D01*
X169168153Y-81945515D01*
X169363500Y-82237871D01*
X169612129Y-82486500D01*
X169904485Y-82681847D01*
X170229335Y-82816404D01*
X170415473Y-82853429D01*
X170331426Y-82870147D01*
X170070273Y-82978320D01*
X169835241Y-83135363D01*
X169635363Y-83335241D01*
X169478320Y-83570273D01*
X169370147Y-83831426D01*
X169315000Y-84108665D01*
X169315000Y-84391335D01*
X169370147Y-84668574D01*
X169478320Y-84929727D01*
X169635363Y-85164759D01*
X169835241Y-85364637D01*
X170070273Y-85521680D01*
X170331426Y-85629853D01*
X170415473Y-85646571D01*
X170229335Y-85683596D01*
X169904485Y-85818153D01*
X169612129Y-86013500D01*
X169363500Y-86262129D01*
X169168153Y-86554485D01*
X169150000Y-86598310D01*
X169131847Y-86554485D01*
X168936500Y-86262129D01*
X168687871Y-86013500D01*
X168395515Y-85818153D01*
X168070665Y-85683596D01*
X167725807Y-85615000D01*
X167374193Y-85615000D01*
X167029335Y-85683596D01*
X166704485Y-85818153D01*
X166412129Y-86013500D01*
X166163500Y-86262129D01*
X165968153Y-86554485D01*
X165833596Y-86879335D01*
X165800000Y-87048235D01*
X165766404Y-86879335D01*
X165631847Y-86554485D01*
X165436500Y-86262129D01*
X165187871Y-86013500D01*
X164895515Y-85818153D01*
X164570665Y-85683596D01*
X164384527Y-85646571D01*
X164468574Y-85629853D01*
X164729727Y-85521680D01*
X164964759Y-85364637D01*
X165164637Y-85164759D01*
X165321680Y-84929727D01*
X165429853Y-84668574D01*
X165485000Y-84391335D01*
X165485000Y-84108665D01*
X165429853Y-83831426D01*
X165321680Y-83570273D01*
X165164637Y-83335241D01*
X164964759Y-83135363D01*
X164729727Y-82978320D01*
X164468574Y-82870147D01*
X164384527Y-82853429D01*
X164570665Y-82816404D01*
X164895515Y-82681847D01*
X165187871Y-82486500D01*
X165436500Y-82237871D01*
X165631847Y-81945515D01*
X165766404Y-81620665D01*
X165835000Y-81275807D01*
X165835000Y-80924193D01*
X165766404Y-80579335D01*
X165631847Y-80254485D01*
X165436500Y-79962129D01*
X165187871Y-79713500D01*
X164895515Y-79518153D01*
X164570665Y-79383596D01*
X164225807Y-79315000D01*
X163874193Y-79315000D01*
X163529335Y-79383596D01*
X163204485Y-79518153D01*
X162912129Y-79713500D01*
X162663500Y-79962129D01*
X162468153Y-80254485D01*
X162333596Y-80579335D01*
X162265000Y-80924193D01*
X138385000Y-80924193D01*
X138385000Y-77970413D01*
X140014192Y-77970413D01*
X140109956Y-78234814D01*
X140399571Y-78375704D01*
X140711108Y-78457384D01*
X141032595Y-78476718D01*
X141351675Y-78432961D01*
X141656088Y-78327795D01*
X141830044Y-78234814D01*
X141925808Y-77970413D01*
X140970000Y-77014605D01*
X140014192Y-77970413D01*
X138385000Y-77970413D01*
X138385000Y-77922239D01*
X138429987Y-77877252D01*
X138608918Y-77609463D01*
X138732168Y-77311912D01*
X138795000Y-76996033D01*
X138795000Y-76897595D01*
X139328282Y-76897595D01*
X139372039Y-77216675D01*
X139477205Y-77521088D01*
X139570186Y-77695044D01*
X139834587Y-77790808D01*
X140790395Y-76835000D01*
X141149605Y-76835000D01*
X142105413Y-77790808D01*
X142369814Y-77695044D01*
X142510704Y-77405429D01*
X142592384Y-77093892D01*
X142611718Y-76772405D01*
X142567961Y-76453325D01*
X142462795Y-76148912D01*
X142369814Y-75974956D01*
X142105413Y-75879192D01*
X141149605Y-76835000D01*
X140790395Y-76835000D01*
X139834587Y-75879192D01*
X139570186Y-75974956D01*
X139429296Y-76264571D01*
X139347616Y-76576108D01*
X139328282Y-76897595D01*
X138795000Y-76897595D01*
X138795000Y-76673967D01*
X138732168Y-76358088D01*
X138608918Y-76060537D01*
X138429987Y-75792748D01*
X138336826Y-75699587D01*
X140014192Y-75699587D01*
X140970000Y-76655395D01*
X141925808Y-75699587D01*
X141830044Y-75435186D01*
X141540429Y-75294296D01*
X141228892Y-75212616D01*
X140907405Y-75193282D01*
X140588325Y-75237039D01*
X140283912Y-75342205D01*
X140109956Y-75435186D01*
X140014192Y-75699587D01*
X138336826Y-75699587D01*
X138202252Y-75565013D01*
X137934463Y-75386082D01*
X137636912Y-75262832D01*
X137321033Y-75200000D01*
X136998967Y-75200000D01*
X136683088Y-75262832D01*
X136385537Y-75386082D01*
X136117748Y-75565013D01*
X135890013Y-75792748D01*
X135711082Y-76060537D01*
X135587832Y-76358088D01*
X135525000Y-76673967D01*
X131241000Y-76673967D01*
X131241000Y-72903400D01*
X136876205Y-72903400D01*
X136932630Y-73134621D01*
X137166808Y-73243017D01*
X137417633Y-73303645D01*
X137675465Y-73314174D01*
X137930398Y-73274200D01*
X138172633Y-73185259D01*
X138267370Y-73134621D01*
X138323795Y-72903400D01*
X137600000Y-72179605D01*
X136876205Y-72903400D01*
X131241000Y-72903400D01*
X131241000Y-72075465D01*
X136285826Y-72075465D01*
X136325800Y-72330398D01*
X136414741Y-72572633D01*
X136465379Y-72667370D01*
X136696600Y-72723795D01*
X137420395Y-72000000D01*
X137406253Y-71985858D01*
X137585858Y-71806253D01*
X137600000Y-71820395D01*
X137614143Y-71806253D01*
X137793748Y-71985858D01*
X137779605Y-72000000D01*
X138503400Y-72723795D01*
X138531248Y-72716999D01*
X158979566Y-72716999D01*
X158983001Y-72751874D01*
X158983002Y-76600116D01*
X158979566Y-76635001D01*
X158993275Y-76774185D01*
X159033873Y-76908020D01*
X159068681Y-76973140D01*
X159099802Y-77031364D01*
X159188527Y-77139476D01*
X159215618Y-77161709D01*
X159460566Y-77406657D01*
X159471089Y-77459560D01*
X159534033Y-77611521D01*
X159625413Y-77748281D01*
X159741719Y-77864587D01*
X159878479Y-77955967D01*
X160030440Y-78018911D01*
X160191760Y-78051000D01*
X160356240Y-78051000D01*
X160517560Y-78018911D01*
X160669521Y-77955967D01*
X160806281Y-77864587D01*
X160922587Y-77748281D01*
X161013967Y-77611521D01*
X161076911Y-77459560D01*
X161109000Y-77298240D01*
X161109000Y-77133760D01*
X161076911Y-76972440D01*
X161013967Y-76820479D01*
X160922587Y-76683719D01*
X160806281Y-76567413D01*
X160669521Y-76476033D01*
X160517560Y-76413089D01*
X160464657Y-76402566D01*
X160403001Y-76340910D01*
X160403001Y-75041811D01*
X160538440Y-75097911D01*
X160699760Y-75130000D01*
X160864240Y-75130000D01*
X161025560Y-75097911D01*
X161177521Y-75034967D01*
X161314281Y-74943587D01*
X161430587Y-74827281D01*
X161521967Y-74690521D01*
X161584911Y-74538560D01*
X161595434Y-74485657D01*
X165571092Y-70510000D01*
X166298883Y-70510000D01*
X166360697Y-70602513D01*
X166273815Y-70673815D01*
X166194463Y-70770506D01*
X166135498Y-70880820D01*
X166099188Y-71000518D01*
X166086928Y-71125000D01*
X166086928Y-72475000D01*
X166099188Y-72599482D01*
X166135498Y-72719180D01*
X166194463Y-72829494D01*
X166273815Y-72926185D01*
X166370506Y-73005537D01*
X166480820Y-73064502D01*
X166600518Y-73100812D01*
X166725000Y-73113072D01*
X168075000Y-73113072D01*
X168199482Y-73100812D01*
X168319180Y-73064502D01*
X168429494Y-73005537D01*
X168526185Y-72926185D01*
X168605537Y-72829494D01*
X168664502Y-72719180D01*
X168700812Y-72599482D01*
X168713072Y-72475000D01*
X168713072Y-71125000D01*
X168700812Y-71000518D01*
X168664502Y-70880820D01*
X168605537Y-70770506D01*
X168526185Y-70673815D01*
X168439303Y-70602513D01*
X168560907Y-70420518D01*
X168659658Y-70182113D01*
X168710000Y-69929024D01*
X168710000Y-69670976D01*
X168659658Y-69417887D01*
X168560907Y-69179482D01*
X168417544Y-68964923D01*
X168235077Y-68782456D01*
X168020518Y-68639093D01*
X167782113Y-68540342D01*
X167529024Y-68490000D01*
X167270976Y-68490000D01*
X167017887Y-68540342D01*
X166779482Y-68639093D01*
X166564923Y-68782456D01*
X166382456Y-68964923D01*
X166298883Y-69090000D01*
X165311875Y-69090000D01*
X165277000Y-69086565D01*
X165242125Y-69090000D01*
X165242123Y-69090000D01*
X165137816Y-69100273D01*
X165003980Y-69140872D01*
X164880637Y-69206800D01*
X164772525Y-69295525D01*
X164750292Y-69322616D01*
X160591343Y-73481566D01*
X160538440Y-73492089D01*
X160403001Y-73548189D01*
X160403001Y-73180474D01*
X160425281Y-73165587D01*
X160541587Y-73049281D01*
X160632967Y-72912521D01*
X160695911Y-72760560D01*
X160728000Y-72599240D01*
X160728000Y-72434760D01*
X160695911Y-72273440D01*
X160632967Y-72121479D01*
X160541587Y-71984719D01*
X160425281Y-71868413D01*
X160288521Y-71777033D01*
X160136560Y-71714089D01*
X159975240Y-71682000D01*
X159810760Y-71682000D01*
X159649440Y-71714089D01*
X159497479Y-71777033D01*
X159360719Y-71868413D01*
X159244413Y-71984719D01*
X159153033Y-72121479D01*
X159090089Y-72273440D01*
X159069380Y-72377552D01*
X159033873Y-72443980D01*
X158993274Y-72577816D01*
X158985556Y-72656185D01*
X158979566Y-72716999D01*
X138531248Y-72716999D01*
X138734621Y-72667370D01*
X138843017Y-72433192D01*
X138903645Y-72182367D01*
X138914174Y-71924535D01*
X138874200Y-71669602D01*
X138785259Y-71427367D01*
X138734621Y-71332630D01*
X138503402Y-71276206D01*
X138513332Y-71266276D01*
X138519180Y-71264502D01*
X138629494Y-71205537D01*
X138726185Y-71126185D01*
X138805537Y-71029494D01*
X138864502Y-70919180D01*
X138900812Y-70799482D01*
X138913072Y-70675000D01*
X138913072Y-69717760D01*
X153565000Y-69717760D01*
X153565000Y-69882240D01*
X153597089Y-70043560D01*
X153660033Y-70195521D01*
X153751413Y-70332281D01*
X153867719Y-70448587D01*
X154004479Y-70539967D01*
X154156440Y-70602911D01*
X154317760Y-70635000D01*
X154482240Y-70635000D01*
X154643560Y-70602911D01*
X154795521Y-70539967D01*
X154932281Y-70448587D01*
X155048587Y-70332281D01*
X155139967Y-70195521D01*
X155202911Y-70043560D01*
X155235000Y-69882240D01*
X155235000Y-69717760D01*
X155202911Y-69556440D01*
X155185000Y-69513199D01*
X155185000Y-64125157D01*
X159552280Y-59757878D01*
X159595521Y-59739967D01*
X159732281Y-59648587D01*
X159848587Y-59532281D01*
X159939967Y-59395521D01*
X160002911Y-59243560D01*
X160035000Y-59082240D01*
X160035000Y-58917760D01*
X160002911Y-58756440D01*
X159939967Y-58604479D01*
X159848587Y-58467719D01*
X159732281Y-58351413D01*
X159595521Y-58260033D01*
X159443560Y-58197089D01*
X159282240Y-58165000D01*
X159117760Y-58165000D01*
X158956440Y-58197089D01*
X158804479Y-58260033D01*
X158667719Y-58351413D01*
X158551413Y-58467719D01*
X158460033Y-58604479D01*
X158442122Y-58647720D01*
X153872190Y-63217653D01*
X153842236Y-63242236D01*
X153744138Y-63361768D01*
X153671246Y-63498141D01*
X153626359Y-63646114D01*
X153615000Y-63761440D01*
X153615000Y-63761447D01*
X153611203Y-63800000D01*
X153615000Y-63838553D01*
X153615001Y-69513197D01*
X153597089Y-69556440D01*
X153565000Y-69717760D01*
X138913072Y-69717760D01*
X138913072Y-69325000D01*
X138900812Y-69200518D01*
X138864502Y-69080820D01*
X138805537Y-68970506D01*
X138726185Y-68873815D01*
X138629494Y-68794463D01*
X138519180Y-68735498D01*
X138399482Y-68699188D01*
X138275000Y-68686928D01*
X136925000Y-68686928D01*
X136800518Y-68699188D01*
X136680820Y-68735498D01*
X136570506Y-68794463D01*
X136473815Y-68873815D01*
X136394463Y-68970506D01*
X136335498Y-69080820D01*
X136299188Y-69200518D01*
X136286928Y-69325000D01*
X136286928Y-70675000D01*
X136299188Y-70799482D01*
X136335498Y-70919180D01*
X136394463Y-71029494D01*
X136473815Y-71126185D01*
X136570506Y-71205537D01*
X136680820Y-71264502D01*
X136686668Y-71266276D01*
X136696598Y-71276206D01*
X136465379Y-71332630D01*
X136356983Y-71566808D01*
X136296355Y-71817633D01*
X136285826Y-72075465D01*
X131241000Y-72075465D01*
X131241000Y-63936429D01*
X134915000Y-63936429D01*
X134915000Y-64253571D01*
X134976871Y-64564620D01*
X135098237Y-64857621D01*
X135274431Y-65121315D01*
X135498685Y-65345569D01*
X135762379Y-65521763D01*
X136055380Y-65643129D01*
X136366429Y-65705000D01*
X136683571Y-65705000D01*
X136994620Y-65643129D01*
X137074599Y-65610000D01*
X145272143Y-65610000D01*
X145272143Y-69430000D01*
X149127857Y-69430000D01*
X149127857Y-65610000D01*
X145272143Y-65610000D01*
X137074599Y-65610000D01*
X137287621Y-65521763D01*
X137551315Y-65345569D01*
X137775569Y-65121315D01*
X137951763Y-64857621D01*
X138073129Y-64564620D01*
X138135000Y-64253571D01*
X138135000Y-63936429D01*
X138073129Y-63625380D01*
X137951763Y-63332379D01*
X137775569Y-63068685D01*
X137551315Y-62844431D01*
X137287621Y-62668237D01*
X136994620Y-62546871D01*
X136683571Y-62485000D01*
X136366429Y-62485000D01*
X136055380Y-62546871D01*
X135762379Y-62668237D01*
X135498685Y-62844431D01*
X135274431Y-63068685D01*
X135098237Y-63332379D01*
X134976871Y-63625380D01*
X134915000Y-63936429D01*
X131241000Y-63936429D01*
X131241000Y-58936429D01*
X134915000Y-58936429D01*
X134915000Y-59253571D01*
X134976871Y-59564620D01*
X135098237Y-59857621D01*
X135274431Y-60121315D01*
X135498685Y-60345569D01*
X135762379Y-60521763D01*
X136055380Y-60643129D01*
X136366429Y-60705000D01*
X136683571Y-60705000D01*
X136994620Y-60643129D01*
X137287621Y-60521763D01*
X137551315Y-60345569D01*
X137775569Y-60121315D01*
X137951763Y-59857621D01*
X138073129Y-59564620D01*
X138135000Y-59253571D01*
X138135000Y-58936429D01*
X138073129Y-58625380D01*
X137951763Y-58332379D01*
X137775569Y-58068685D01*
X137551315Y-57844431D01*
X137287621Y-57668237D01*
X136994620Y-57546871D01*
X136683571Y-57485000D01*
X136366429Y-57485000D01*
X136055380Y-57546871D01*
X135762379Y-57668237D01*
X135498685Y-57844431D01*
X135274431Y-58068685D01*
X135098237Y-58332379D01*
X134976871Y-58625380D01*
X134915000Y-58936429D01*
X131241000Y-58936429D01*
X131241000Y-50517760D01*
X144165000Y-50517760D01*
X144165000Y-50682240D01*
X144197089Y-50843560D01*
X144215000Y-50886801D01*
X144215001Y-61701439D01*
X144211203Y-61740002D01*
X144226359Y-61893888D01*
X144271246Y-62041861D01*
X144287456Y-62072188D01*
X144344139Y-62178235D01*
X144384690Y-62227646D01*
X144417655Y-62267814D01*
X144417659Y-62267818D01*
X144442237Y-62297766D01*
X144472185Y-62322344D01*
X145277651Y-63127810D01*
X145292749Y-63146207D01*
X145247089Y-63256440D01*
X145215000Y-63417760D01*
X145215000Y-63582240D01*
X145247089Y-63743560D01*
X145310033Y-63895521D01*
X145401413Y-64032281D01*
X145517719Y-64148587D01*
X145654479Y-64239967D01*
X145806440Y-64302911D01*
X145967760Y-64335000D01*
X146132240Y-64335000D01*
X146293560Y-64302911D01*
X146445521Y-64239967D01*
X146490370Y-64210000D01*
X152238125Y-64210000D01*
X152273000Y-64213435D01*
X152307875Y-64210000D01*
X152307877Y-64210000D01*
X152412184Y-64199727D01*
X152546020Y-64159128D01*
X152669363Y-64093200D01*
X152777475Y-64004475D01*
X152799712Y-63977379D01*
X160718658Y-56058434D01*
X160771560Y-56047911D01*
X160923521Y-55984967D01*
X161060281Y-55893587D01*
X161176587Y-55777281D01*
X161267967Y-55640521D01*
X161330911Y-55488560D01*
X161363000Y-55327240D01*
X161363000Y-55162760D01*
X161330911Y-55001440D01*
X161267967Y-54849479D01*
X161176587Y-54712719D01*
X161060281Y-54596413D01*
X160923521Y-54505033D01*
X160771560Y-54442089D01*
X160610240Y-54410000D01*
X160445760Y-54410000D01*
X160284440Y-54442089D01*
X160132479Y-54505033D01*
X159995719Y-54596413D01*
X159879413Y-54712719D01*
X159788033Y-54849479D01*
X159725089Y-55001440D01*
X159714566Y-55054342D01*
X151978909Y-62790000D01*
X148413565Y-62790000D01*
X148435000Y-62682240D01*
X148435000Y-62517760D01*
X148402911Y-62356440D01*
X148339967Y-62204479D01*
X148248587Y-62067719D01*
X148132281Y-61951413D01*
X147995521Y-61860033D01*
X147843560Y-61797089D01*
X147682240Y-61765000D01*
X147517760Y-61765000D01*
X147356440Y-61797089D01*
X147313199Y-61815000D01*
X146185155Y-61815000D01*
X145785000Y-61414845D01*
X145785000Y-52241760D01*
X152835000Y-52241760D01*
X152835000Y-52406240D01*
X152867089Y-52567560D01*
X152930033Y-52719521D01*
X153021413Y-52856281D01*
X153137719Y-52972587D01*
X153274479Y-53063967D01*
X153426440Y-53126911D01*
X153479343Y-53137434D01*
X153722000Y-53380091D01*
X153722000Y-53407630D01*
X153692033Y-53452479D01*
X153629089Y-53604440D01*
X153597000Y-53765760D01*
X153597000Y-53930240D01*
X153629089Y-54091560D01*
X153692033Y-54243521D01*
X153783413Y-54380281D01*
X153899719Y-54496587D01*
X154036479Y-54587967D01*
X154188440Y-54650911D01*
X154349760Y-54683000D01*
X154514240Y-54683000D01*
X154675560Y-54650911D01*
X154827521Y-54587967D01*
X154964281Y-54496587D01*
X155080587Y-54380281D01*
X155171967Y-54243521D01*
X155234911Y-54091560D01*
X155267000Y-53930240D01*
X155267000Y-53765760D01*
X155234911Y-53604440D01*
X155171967Y-53452479D01*
X155142000Y-53407630D01*
X155142000Y-53120875D01*
X155145435Y-53086000D01*
X155142000Y-53051123D01*
X155131727Y-52946816D01*
X155091128Y-52812980D01*
X155025200Y-52689637D01*
X154936474Y-52581525D01*
X154909383Y-52559292D01*
X154483434Y-52133343D01*
X154472911Y-52080440D01*
X154409967Y-51928479D01*
X154318587Y-51791719D01*
X154202281Y-51675413D01*
X154065521Y-51584033D01*
X153913560Y-51521089D01*
X153752240Y-51489000D01*
X153587760Y-51489000D01*
X153426440Y-51521089D01*
X153274479Y-51584033D01*
X153137719Y-51675413D01*
X153021413Y-51791719D01*
X152930033Y-51928479D01*
X152867089Y-52080440D01*
X152835000Y-52241760D01*
X145785000Y-52241760D01*
X145785000Y-50886801D01*
X145802911Y-50843560D01*
X145835000Y-50682240D01*
X145835000Y-50517760D01*
X145802911Y-50356440D01*
X145739967Y-50204479D01*
X145648587Y-50067719D01*
X145532281Y-49951413D01*
X145395521Y-49860033D01*
X145243560Y-49797089D01*
X145082240Y-49765000D01*
X144917760Y-49765000D01*
X144756440Y-49797089D01*
X144604479Y-49860033D01*
X144467719Y-49951413D01*
X144351413Y-50067719D01*
X144260033Y-50204479D01*
X144197089Y-50356440D01*
X144165000Y-50517760D01*
X131241000Y-50517760D01*
X131241000Y-45917386D01*
X131261386Y-45897000D01*
X174067000Y-45897000D01*
X174067001Y-89315000D01*
G37*
%TD.AperFunction*%
%TD*%
M02*
