%TF.GenerationSoftware,KiCad,Pcbnew,(5.1.8)-1*%
%TF.CreationDate,2021-02-07T14:07:47+00:00*%
%TF.ProjectId,Bat_Listner_JLCPCB,4261745f-4c69-4737-946e-65725f4a4c43,rev?*%
%TF.SameCoordinates,Original*%
%TF.FileFunction,Copper,L1,Top*%
%TF.FilePolarity,Positive*%
%FSLAX46Y46*%
G04 Gerber Fmt 4.6, Leading zero omitted, Abs format (unit mm)*
G04 Created by KiCad (PCBNEW (5.1.8)-1) date 2021-02-07 14:07:47*
%MOMM*%
%LPD*%
G01*
G04 APERTURE LIST*
%TA.AperFunction,SMDPad,CuDef*%
%ADD10R,1.525000X0.650000*%
%TD*%
%TA.AperFunction,SMDPad,CuDef*%
%ADD11R,2.300000X1.800000*%
%TD*%
%TA.AperFunction,SMDPad,CuDef*%
%ADD12R,1.300000X1.700000*%
%TD*%
%TA.AperFunction,SMDPad,CuDef*%
%ADD13R,0.500000X0.500000*%
%TD*%
%TA.AperFunction,SMDPad,CuDef*%
%ADD14R,1.000000X0.550000*%
%TD*%
%TA.AperFunction,ComponentPad*%
%ADD15C,2.000000*%
%TD*%
%TA.AperFunction,ComponentPad*%
%ADD16C,1.950000*%
%TD*%
%TA.AperFunction,ComponentPad*%
%ADD17C,1.350000*%
%TD*%
%TA.AperFunction,ComponentPad*%
%ADD18R,1.350000X1.350000*%
%TD*%
%TA.AperFunction,ComponentPad*%
%ADD19C,2.300000*%
%TD*%
%TA.AperFunction,SMDPad,CuDef*%
%ADD20R,1.300000X2.000000*%
%TD*%
%TA.AperFunction,SMDPad,CuDef*%
%ADD21R,2.000000X2.000000*%
%TD*%
%TA.AperFunction,ViaPad*%
%ADD22C,0.400000*%
%TD*%
%TA.AperFunction,Conductor*%
%ADD23C,0.150000*%
%TD*%
%TA.AperFunction,Conductor*%
%ADD24C,0.300000*%
%TD*%
G04 APERTURE END LIST*
D10*
%TO.P,AT1,8*%
%TO.N,Net-(AT1-Pad8)*%
X148127000Y-55245000D03*
%TO.P,AT1,7*%
%TO.N,Net-(AT1-Pad7)*%
X148127000Y-56515000D03*
%TO.P,AT1,6*%
%TO.N,+BATT*%
X148127000Y-57785000D03*
%TO.P,AT1,5*%
%TO.N,Net-(AT1-Pad5)*%
X148127000Y-59055000D03*
%TO.P,AT1,4*%
%TO.N,GND*%
X142703000Y-59055000D03*
%TO.P,AT1,3*%
%TO.N,Net-(AT1-Pad3)*%
X142703000Y-57785000D03*
%TO.P,AT1,2*%
%TO.N,Net-(AT1-Pad2)*%
X142703000Y-56515000D03*
%TO.P,AT1,1*%
%TO.N,Net-(AT1-Pad1)*%
X142703000Y-55245000D03*
%TD*%
%TO.P,C1,2*%
%TO.N,Net-(AT1-Pad1)*%
%TA.AperFunction,SMDPad,CuDef*%
G36*
G01*
X145370000Y-53170000D02*
X145370000Y-53510000D01*
G75*
G02*
X145230000Y-53650000I-140000J0D01*
G01*
X144950000Y-53650000D01*
G75*
G02*
X144810000Y-53510000I0J140000D01*
G01*
X144810000Y-53170000D01*
G75*
G02*
X144950000Y-53030000I140000J0D01*
G01*
X145230000Y-53030000D01*
G75*
G02*
X145370000Y-53170000I0J-140000D01*
G01*
G37*
%TD.AperFunction*%
%TO.P,C1,1*%
%TO.N,Net-(AT1-Pad8)*%
%TA.AperFunction,SMDPad,CuDef*%
G36*
G01*
X146330000Y-53170000D02*
X146330000Y-53510000D01*
G75*
G02*
X146190000Y-53650000I-140000J0D01*
G01*
X145910000Y-53650000D01*
G75*
G02*
X145770000Y-53510000I0J140000D01*
G01*
X145770000Y-53170000D01*
G75*
G02*
X145910000Y-53030000I140000J0D01*
G01*
X146190000Y-53030000D01*
G75*
G02*
X146330000Y-53170000I0J-140000D01*
G01*
G37*
%TD.AperFunction*%
%TD*%
%TO.P,C2,1*%
%TO.N,Net-(AT1-Pad7)*%
%TA.AperFunction,SMDPad,CuDef*%
G36*
G01*
X149735000Y-54780000D02*
X149735000Y-54440000D01*
G75*
G02*
X149875000Y-54300000I140000J0D01*
G01*
X150155000Y-54300000D01*
G75*
G02*
X150295000Y-54440000I0J-140000D01*
G01*
X150295000Y-54780000D01*
G75*
G02*
X150155000Y-54920000I-140000J0D01*
G01*
X149875000Y-54920000D01*
G75*
G02*
X149735000Y-54780000I0J140000D01*
G01*
G37*
%TD.AperFunction*%
%TO.P,C2,2*%
%TO.N,GND*%
%TA.AperFunction,SMDPad,CuDef*%
G36*
G01*
X150695000Y-54780000D02*
X150695000Y-54440000D01*
G75*
G02*
X150835000Y-54300000I140000J0D01*
G01*
X151115000Y-54300000D01*
G75*
G02*
X151255000Y-54440000I0J-140000D01*
G01*
X151255000Y-54780000D01*
G75*
G02*
X151115000Y-54920000I-140000J0D01*
G01*
X150835000Y-54920000D01*
G75*
G02*
X150695000Y-54780000I0J140000D01*
G01*
G37*
%TD.AperFunction*%
%TD*%
%TO.P,C3,2*%
%TO.N,GND*%
%TA.AperFunction,SMDPad,CuDef*%
G36*
G01*
X153500000Y-57350000D02*
X153840000Y-57350000D01*
G75*
G02*
X153980000Y-57490000I0J-140000D01*
G01*
X153980000Y-57770000D01*
G75*
G02*
X153840000Y-57910000I-140000J0D01*
G01*
X153500000Y-57910000D01*
G75*
G02*
X153360000Y-57770000I0J140000D01*
G01*
X153360000Y-57490000D01*
G75*
G02*
X153500000Y-57350000I140000J0D01*
G01*
G37*
%TD.AperFunction*%
%TO.P,C3,1*%
%TO.N,Net-(C3-Pad1)*%
%TA.AperFunction,SMDPad,CuDef*%
G36*
G01*
X153500000Y-56390000D02*
X153840000Y-56390000D01*
G75*
G02*
X153980000Y-56530000I0J-140000D01*
G01*
X153980000Y-56810000D01*
G75*
G02*
X153840000Y-56950000I-140000J0D01*
G01*
X153500000Y-56950000D01*
G75*
G02*
X153360000Y-56810000I0J140000D01*
G01*
X153360000Y-56530000D01*
G75*
G02*
X153500000Y-56390000I140000J0D01*
G01*
G37*
%TD.AperFunction*%
%TD*%
%TO.P,C5,1*%
%TO.N,+BATT*%
%TA.AperFunction,SMDPad,CuDef*%
G36*
G01*
X147925000Y-61425000D02*
X147925000Y-61765000D01*
G75*
G02*
X147785000Y-61905000I-140000J0D01*
G01*
X147505000Y-61905000D01*
G75*
G02*
X147365000Y-61765000I0J140000D01*
G01*
X147365000Y-61425000D01*
G75*
G02*
X147505000Y-61285000I140000J0D01*
G01*
X147785000Y-61285000D01*
G75*
G02*
X147925000Y-61425000I0J-140000D01*
G01*
G37*
%TD.AperFunction*%
%TO.P,C5,2*%
%TO.N,GND*%
%TA.AperFunction,SMDPad,CuDef*%
G36*
G01*
X146965000Y-61425000D02*
X146965000Y-61765000D01*
G75*
G02*
X146825000Y-61905000I-140000J0D01*
G01*
X146545000Y-61905000D01*
G75*
G02*
X146405000Y-61765000I0J140000D01*
G01*
X146405000Y-61425000D01*
G75*
G02*
X146545000Y-61285000I140000J0D01*
G01*
X146825000Y-61285000D01*
G75*
G02*
X146965000Y-61425000I0J-140000D01*
G01*
G37*
%TD.AperFunction*%
%TD*%
%TO.P,C6,1*%
%TO.N,Net-(AT1-Pad5)*%
%TA.AperFunction,SMDPad,CuDef*%
G36*
G01*
X149735000Y-59225000D02*
X149735000Y-58885000D01*
G75*
G02*
X149875000Y-58745000I140000J0D01*
G01*
X150155000Y-58745000D01*
G75*
G02*
X150295000Y-58885000I0J-140000D01*
G01*
X150295000Y-59225000D01*
G75*
G02*
X150155000Y-59365000I-140000J0D01*
G01*
X149875000Y-59365000D01*
G75*
G02*
X149735000Y-59225000I0J140000D01*
G01*
G37*
%TD.AperFunction*%
%TO.P,C6,2*%
%TO.N,Net-(C6-Pad2)*%
%TA.AperFunction,SMDPad,CuDef*%
G36*
G01*
X150695000Y-59225000D02*
X150695000Y-58885000D01*
G75*
G02*
X150835000Y-58745000I140000J0D01*
G01*
X151115000Y-58745000D01*
G75*
G02*
X151255000Y-58885000I0J-140000D01*
G01*
X151255000Y-59225000D01*
G75*
G02*
X151115000Y-59365000I-140000J0D01*
G01*
X150835000Y-59365000D01*
G75*
G02*
X150695000Y-59225000I0J140000D01*
G01*
G37*
%TD.AperFunction*%
%TD*%
%TO.P,C7,2*%
%TO.N,Net-(C7-Pad2)*%
%TA.AperFunction,SMDPad,CuDef*%
G36*
G01*
X151485000Y-73195000D02*
X151485000Y-72855000D01*
G75*
G02*
X151625000Y-72715000I140000J0D01*
G01*
X151905000Y-72715000D01*
G75*
G02*
X152045000Y-72855000I0J-140000D01*
G01*
X152045000Y-73195000D01*
G75*
G02*
X151905000Y-73335000I-140000J0D01*
G01*
X151625000Y-73335000D01*
G75*
G02*
X151485000Y-73195000I0J140000D01*
G01*
G37*
%TD.AperFunction*%
%TO.P,C7,1*%
%TO.N,Net-(C7-Pad1)*%
%TA.AperFunction,SMDPad,CuDef*%
G36*
G01*
X150525000Y-73195000D02*
X150525000Y-72855000D01*
G75*
G02*
X150665000Y-72715000I140000J0D01*
G01*
X150945000Y-72715000D01*
G75*
G02*
X151085000Y-72855000I0J-140000D01*
G01*
X151085000Y-73195000D01*
G75*
G02*
X150945000Y-73335000I-140000J0D01*
G01*
X150665000Y-73335000D01*
G75*
G02*
X150525000Y-73195000I0J140000D01*
G01*
G37*
%TD.AperFunction*%
%TD*%
%TO.P,C8,2*%
%TO.N,Net-(C6-Pad2)*%
%TA.AperFunction,SMDPad,CuDef*%
G36*
G01*
X152835000Y-61425000D02*
X152835000Y-61765000D01*
G75*
G02*
X152695000Y-61905000I-140000J0D01*
G01*
X152415000Y-61905000D01*
G75*
G02*
X152275000Y-61765000I0J140000D01*
G01*
X152275000Y-61425000D01*
G75*
G02*
X152415000Y-61285000I140000J0D01*
G01*
X152695000Y-61285000D01*
G75*
G02*
X152835000Y-61425000I0J-140000D01*
G01*
G37*
%TD.AperFunction*%
%TO.P,C8,1*%
%TO.N,6*%
%TA.AperFunction,SMDPad,CuDef*%
G36*
G01*
X153795000Y-61425000D02*
X153795000Y-61765000D01*
G75*
G02*
X153655000Y-61905000I-140000J0D01*
G01*
X153375000Y-61905000D01*
G75*
G02*
X153235000Y-61765000I0J140000D01*
G01*
X153235000Y-61425000D01*
G75*
G02*
X153375000Y-61285000I140000J0D01*
G01*
X153655000Y-61285000D01*
G75*
G02*
X153795000Y-61425000I0J-140000D01*
G01*
G37*
%TD.AperFunction*%
%TD*%
%TO.P,C9,1*%
%TO.N,Net-(C6-Pad2)*%
%TA.AperFunction,SMDPad,CuDef*%
G36*
G01*
X152275000Y-63035000D02*
X152275000Y-62695000D01*
G75*
G02*
X152415000Y-62555000I140000J0D01*
G01*
X152695000Y-62555000D01*
G75*
G02*
X152835000Y-62695000I0J-140000D01*
G01*
X152835000Y-63035000D01*
G75*
G02*
X152695000Y-63175000I-140000J0D01*
G01*
X152415000Y-63175000D01*
G75*
G02*
X152275000Y-63035000I0J140000D01*
G01*
G37*
%TD.AperFunction*%
%TO.P,C9,2*%
%TO.N,7*%
%TA.AperFunction,SMDPad,CuDef*%
G36*
G01*
X153235000Y-63035000D02*
X153235000Y-62695000D01*
G75*
G02*
X153375000Y-62555000I140000J0D01*
G01*
X153655000Y-62555000D01*
G75*
G02*
X153795000Y-62695000I0J-140000D01*
G01*
X153795000Y-63035000D01*
G75*
G02*
X153655000Y-63175000I-140000J0D01*
G01*
X153375000Y-63175000D01*
G75*
G02*
X153235000Y-63035000I0J140000D01*
G01*
G37*
%TD.AperFunction*%
%TD*%
%TO.P,C10,2*%
%TO.N,Net-(C10-Pad2)*%
%TA.AperFunction,SMDPad,CuDef*%
G36*
G01*
X156010000Y-64600000D02*
X156010000Y-64940000D01*
G75*
G02*
X155870000Y-65080000I-140000J0D01*
G01*
X155590000Y-65080000D01*
G75*
G02*
X155450000Y-64940000I0J140000D01*
G01*
X155450000Y-64600000D01*
G75*
G02*
X155590000Y-64460000I140000J0D01*
G01*
X155870000Y-64460000D01*
G75*
G02*
X156010000Y-64600000I0J-140000D01*
G01*
G37*
%TD.AperFunction*%
%TO.P,C10,1*%
%TO.N,7*%
%TA.AperFunction,SMDPad,CuDef*%
G36*
G01*
X156970000Y-64600000D02*
X156970000Y-64940000D01*
G75*
G02*
X156830000Y-65080000I-140000J0D01*
G01*
X156550000Y-65080000D01*
G75*
G02*
X156410000Y-64940000I0J140000D01*
G01*
X156410000Y-64600000D01*
G75*
G02*
X156550000Y-64460000I140000J0D01*
G01*
X156830000Y-64460000D01*
G75*
G02*
X156970000Y-64600000I0J-140000D01*
G01*
G37*
%TD.AperFunction*%
%TD*%
%TO.P,C11,1*%
%TO.N,Net-(C10-Pad2)*%
%TA.AperFunction,SMDPad,CuDef*%
G36*
G01*
X155620000Y-66925000D02*
X155620000Y-66425000D01*
G75*
G02*
X155845000Y-66200000I225000J0D01*
G01*
X156295000Y-66200000D01*
G75*
G02*
X156520000Y-66425000I0J-225000D01*
G01*
X156520000Y-66925000D01*
G75*
G02*
X156295000Y-67150000I-225000J0D01*
G01*
X155845000Y-67150000D01*
G75*
G02*
X155620000Y-66925000I0J225000D01*
G01*
G37*
%TD.AperFunction*%
%TO.P,C11,2*%
%TO.N,9*%
%TA.AperFunction,SMDPad,CuDef*%
G36*
G01*
X157170000Y-66925000D02*
X157170000Y-66425000D01*
G75*
G02*
X157395000Y-66200000I225000J0D01*
G01*
X157845000Y-66200000D01*
G75*
G02*
X158070000Y-66425000I0J-225000D01*
G01*
X158070000Y-66925000D01*
G75*
G02*
X157845000Y-67150000I-225000J0D01*
G01*
X157395000Y-67150000D01*
G75*
G02*
X157170000Y-66925000I0J225000D01*
G01*
G37*
%TD.AperFunction*%
%TD*%
%TO.P,C12,2*%
%TO.N,8*%
%TA.AperFunction,SMDPad,CuDef*%
G36*
G01*
X160270000Y-66985000D02*
X159770000Y-66985000D01*
G75*
G02*
X159545000Y-66760000I0J225000D01*
G01*
X159545000Y-66310000D01*
G75*
G02*
X159770000Y-66085000I225000J0D01*
G01*
X160270000Y-66085000D01*
G75*
G02*
X160495000Y-66310000I0J-225000D01*
G01*
X160495000Y-66760000D01*
G75*
G02*
X160270000Y-66985000I-225000J0D01*
G01*
G37*
%TD.AperFunction*%
%TO.P,C12,1*%
%TO.N,Net-(C10-Pad2)*%
%TA.AperFunction,SMDPad,CuDef*%
G36*
G01*
X160270000Y-68535000D02*
X159770000Y-68535000D01*
G75*
G02*
X159545000Y-68310000I0J225000D01*
G01*
X159545000Y-67860000D01*
G75*
G02*
X159770000Y-67635000I225000J0D01*
G01*
X160270000Y-67635000D01*
G75*
G02*
X160495000Y-67860000I0J-225000D01*
G01*
X160495000Y-68310000D01*
G75*
G02*
X160270000Y-68535000I-225000J0D01*
G01*
G37*
%TD.AperFunction*%
%TD*%
%TO.P,C13,2*%
%TO.N,Net-(C13-Pad2)*%
%TA.AperFunction,SMDPad,CuDef*%
G36*
G01*
X164665000Y-63035000D02*
X164665000Y-62695000D01*
G75*
G02*
X164805000Y-62555000I140000J0D01*
G01*
X165085000Y-62555000D01*
G75*
G02*
X165225000Y-62695000I0J-140000D01*
G01*
X165225000Y-63035000D01*
G75*
G02*
X165085000Y-63175000I-140000J0D01*
G01*
X164805000Y-63175000D01*
G75*
G02*
X164665000Y-63035000I0J140000D01*
G01*
G37*
%TD.AperFunction*%
%TO.P,C13,1*%
%TO.N,8*%
%TA.AperFunction,SMDPad,CuDef*%
G36*
G01*
X163705000Y-63035000D02*
X163705000Y-62695000D01*
G75*
G02*
X163845000Y-62555000I140000J0D01*
G01*
X164125000Y-62555000D01*
G75*
G02*
X164265000Y-62695000I0J-140000D01*
G01*
X164265000Y-63035000D01*
G75*
G02*
X164125000Y-63175000I-140000J0D01*
G01*
X163845000Y-63175000D01*
G75*
G02*
X163705000Y-63035000I0J140000D01*
G01*
G37*
%TD.AperFunction*%
%TD*%
D11*
%TO.P,C14,1*%
%TO.N,Net-(C14-Pad1)*%
X163195000Y-72115000D03*
%TO.P,C14,2*%
%TO.N,GND*%
X163195000Y-69215000D03*
%TD*%
%TO.P,C15,1*%
%TO.N,13*%
%TA.AperFunction,SMDPad,CuDef*%
G36*
G01*
X165270000Y-56640000D02*
X164930000Y-56640000D01*
G75*
G02*
X164790000Y-56500000I0J140000D01*
G01*
X164790000Y-56220000D01*
G75*
G02*
X164930000Y-56080000I140000J0D01*
G01*
X165270000Y-56080000D01*
G75*
G02*
X165410000Y-56220000I0J-140000D01*
G01*
X165410000Y-56500000D01*
G75*
G02*
X165270000Y-56640000I-140000J0D01*
G01*
G37*
%TD.AperFunction*%
%TO.P,C15,2*%
%TO.N,14*%
%TA.AperFunction,SMDPad,CuDef*%
G36*
G01*
X165270000Y-55680000D02*
X164930000Y-55680000D01*
G75*
G02*
X164790000Y-55540000I0J140000D01*
G01*
X164790000Y-55260000D01*
G75*
G02*
X164930000Y-55120000I140000J0D01*
G01*
X165270000Y-55120000D01*
G75*
G02*
X165410000Y-55260000I0J-140000D01*
G01*
X165410000Y-55540000D01*
G75*
G02*
X165270000Y-55680000I-140000J0D01*
G01*
G37*
%TD.AperFunction*%
%TD*%
D12*
%TO.P,D1,1*%
%TO.N,Net-(D1-Pad1)*%
X142395000Y-73660000D03*
%TO.P,D1,2*%
%TO.N,GND*%
X145895000Y-73660000D03*
%TD*%
D13*
%TO.P,D2,1*%
%TO.N,Net-(C7-Pad2)*%
X151595000Y-76200000D03*
%TO.P,D2,2*%
%TO.N,GND*%
X149395000Y-76200000D03*
%TD*%
%TO.P,D3,2*%
%TO.N,Net-(D3-Pad2)*%
X158115000Y-73490000D03*
%TO.P,D3,1*%
%TO.N,Net-(C14-Pad1)*%
X158115000Y-71290000D03*
%TD*%
%TO.P,D4,1*%
%TO.N,Net-(D3-Pad2)*%
%TA.AperFunction,SMDPad,CuDef*%
G36*
G01*
X157960000Y-76021250D02*
X157960000Y-75108750D01*
G75*
G02*
X158203750Y-74865000I243750J0D01*
G01*
X158691250Y-74865000D01*
G75*
G02*
X158935000Y-75108750I0J-243750D01*
G01*
X158935000Y-76021250D01*
G75*
G02*
X158691250Y-76265000I-243750J0D01*
G01*
X158203750Y-76265000D01*
G75*
G02*
X157960000Y-76021250I0J243750D01*
G01*
G37*
%TD.AperFunction*%
%TO.P,D4,2*%
%TO.N,Net-(C14-Pad1)*%
%TA.AperFunction,SMDPad,CuDef*%
G36*
G01*
X159835000Y-76021250D02*
X159835000Y-75108750D01*
G75*
G02*
X160078750Y-74865000I243750J0D01*
G01*
X160566250Y-74865000D01*
G75*
G02*
X160810000Y-75108750I0J-243750D01*
G01*
X160810000Y-76021250D01*
G75*
G02*
X160566250Y-76265000I-243750J0D01*
G01*
X160078750Y-76265000D01*
G75*
G02*
X159835000Y-76021250I0J243750D01*
G01*
G37*
%TD.AperFunction*%
%TD*%
D10*
%TO.P,IC1,1*%
%TO.N,14*%
X144608000Y-63500000D03*
%TO.P,IC1,2*%
%TO.N,GND*%
X144608000Y-64770000D03*
%TO.P,IC1,3*%
%TO.N,N/C*%
X144608000Y-66040000D03*
%TO.P,IC1,4*%
X144608000Y-67310000D03*
%TO.P,IC1,5*%
X144608000Y-68580000D03*
%TO.P,IC1,6*%
%TO.N,Net-(IC1-Pad6)*%
X144608000Y-69850000D03*
%TO.P,IC1,7*%
%TO.N,GND*%
X144608000Y-71120000D03*
%TO.P,IC1,8*%
%TO.N,N/C*%
X150032000Y-71120000D03*
%TO.P,IC1,9*%
X150032000Y-69850000D03*
%TO.P,IC1,10*%
X150032000Y-68580000D03*
%TO.P,IC1,11*%
X150032000Y-67310000D03*
%TO.P,IC1,12*%
X150032000Y-66040000D03*
%TO.P,IC1,13*%
X150032000Y-64770000D03*
%TO.P,IC1,14*%
%TO.N,+BATT*%
X150032000Y-63500000D03*
%TD*%
%TO.P,IC2,14*%
%TO.N,14*%
X162097000Y-55245000D03*
%TO.P,IC2,13*%
%TO.N,13*%
X162097000Y-56515000D03*
%TO.P,IC2,12*%
%TO.N,1*%
X162097000Y-57785000D03*
%TO.P,IC2,11*%
%TO.N,N/C*%
X162097000Y-59055000D03*
%TO.P,IC2,10*%
%TO.N,1*%
X162097000Y-60325000D03*
%TO.P,IC2,9*%
%TO.N,9*%
X162097000Y-61595000D03*
%TO.P,IC2,8*%
%TO.N,8*%
X162097000Y-62865000D03*
%TO.P,IC2,7*%
%TO.N,7*%
X156673000Y-62865000D03*
%TO.P,IC2,6*%
%TO.N,6*%
X156673000Y-61595000D03*
%TO.P,IC2,5*%
%TO.N,1*%
X156673000Y-60325000D03*
%TO.P,IC2,4*%
%TO.N,+BATT*%
X156673000Y-59055000D03*
%TO.P,IC2,3*%
%TO.N,3*%
X156673000Y-57785000D03*
%TO.P,IC2,2*%
%TO.N,1*%
X156673000Y-56515000D03*
%TO.P,IC2,1*%
X156673000Y-55245000D03*
%TD*%
D14*
%TO.P,Q1,1*%
%TO.N,Net-(C7-Pad2)*%
X153675000Y-73010000D03*
%TO.P,Q1,2*%
%TO.N,GND*%
X153675000Y-74310000D03*
%TO.P,Q1,3*%
%TO.N,Net-(D3-Pad2)*%
X155575000Y-73660000D03*
%TD*%
%TO.P,R1,1*%
%TO.N,Net-(IC1-Pad6)*%
%TA.AperFunction,SMDPad,CuDef*%
G36*
G01*
X142690000Y-69705000D02*
X143060000Y-69705000D01*
G75*
G02*
X143195000Y-69840000I0J-135000D01*
G01*
X143195000Y-70110000D01*
G75*
G02*
X143060000Y-70245000I-135000J0D01*
G01*
X142690000Y-70245000D01*
G75*
G02*
X142555000Y-70110000I0J135000D01*
G01*
X142555000Y-69840000D01*
G75*
G02*
X142690000Y-69705000I135000J0D01*
G01*
G37*
%TD.AperFunction*%
%TO.P,R1,2*%
%TO.N,Net-(D1-Pad1)*%
%TA.AperFunction,SMDPad,CuDef*%
G36*
G01*
X142690000Y-70725000D02*
X143060000Y-70725000D01*
G75*
G02*
X143195000Y-70860000I0J-135000D01*
G01*
X143195000Y-71130000D01*
G75*
G02*
X143060000Y-71265000I-135000J0D01*
G01*
X142690000Y-71265000D01*
G75*
G02*
X142555000Y-71130000I0J135000D01*
G01*
X142555000Y-70860000D01*
G75*
G02*
X142690000Y-70725000I135000J0D01*
G01*
G37*
%TD.AperFunction*%
%TD*%
%TO.P,R2,1*%
%TO.N,Net-(AT1-Pad5)*%
%TA.AperFunction,SMDPad,CuDef*%
G36*
G01*
X149651000Y-57425000D02*
X149651000Y-56875000D01*
G75*
G02*
X149851000Y-56675000I200000J0D01*
G01*
X150251000Y-56675000D01*
G75*
G02*
X150451000Y-56875000I0J-200000D01*
G01*
X150451000Y-57425000D01*
G75*
G02*
X150251000Y-57625000I-200000J0D01*
G01*
X149851000Y-57625000D01*
G75*
G02*
X149651000Y-57425000I0J200000D01*
G01*
G37*
%TD.AperFunction*%
%TO.P,R2,2*%
%TO.N,Net-(C3-Pad1)*%
%TA.AperFunction,SMDPad,CuDef*%
G36*
G01*
X151301000Y-57425000D02*
X151301000Y-56875000D01*
G75*
G02*
X151501000Y-56675000I200000J0D01*
G01*
X151901000Y-56675000D01*
G75*
G02*
X152101000Y-56875000I0J-200000D01*
G01*
X152101000Y-57425000D01*
G75*
G02*
X151901000Y-57625000I-200000J0D01*
G01*
X151501000Y-57625000D01*
G75*
G02*
X151301000Y-57425000I0J200000D01*
G01*
G37*
%TD.AperFunction*%
%TD*%
%TO.P,R3,2*%
%TO.N,Net-(C7-Pad1)*%
%TA.AperFunction,SMDPad,CuDef*%
G36*
G01*
X149084000Y-73083000D02*
X149084000Y-72713000D01*
G75*
G02*
X149219000Y-72578000I135000J0D01*
G01*
X149489000Y-72578000D01*
G75*
G02*
X149624000Y-72713000I0J-135000D01*
G01*
X149624000Y-73083000D01*
G75*
G02*
X149489000Y-73218000I-135000J0D01*
G01*
X149219000Y-73218000D01*
G75*
G02*
X149084000Y-73083000I0J135000D01*
G01*
G37*
%TD.AperFunction*%
%TO.P,R3,1*%
%TO.N,Net-(IC1-Pad6)*%
%TA.AperFunction,SMDPad,CuDef*%
G36*
G01*
X148064000Y-73083000D02*
X148064000Y-72713000D01*
G75*
G02*
X148199000Y-72578000I135000J0D01*
G01*
X148469000Y-72578000D01*
G75*
G02*
X148604000Y-72713000I0J-135000D01*
G01*
X148604000Y-73083000D01*
G75*
G02*
X148469000Y-73218000I-135000J0D01*
G01*
X148199000Y-73218000D01*
G75*
G02*
X148064000Y-73083000I0J135000D01*
G01*
G37*
%TD.AperFunction*%
%TD*%
%TO.P,R4,2*%
%TO.N,GND*%
%TA.AperFunction,SMDPad,CuDef*%
G36*
G01*
X153855000Y-58940000D02*
X153485000Y-58940000D01*
G75*
G02*
X153350000Y-58805000I0J135000D01*
G01*
X153350000Y-58535000D01*
G75*
G02*
X153485000Y-58400000I135000J0D01*
G01*
X153855000Y-58400000D01*
G75*
G02*
X153990000Y-58535000I0J-135000D01*
G01*
X153990000Y-58805000D01*
G75*
G02*
X153855000Y-58940000I-135000J0D01*
G01*
G37*
%TD.AperFunction*%
%TO.P,R4,1*%
%TO.N,Net-(C6-Pad2)*%
%TA.AperFunction,SMDPad,CuDef*%
G36*
G01*
X153855000Y-59960000D02*
X153485000Y-59960000D01*
G75*
G02*
X153350000Y-59825000I0J135000D01*
G01*
X153350000Y-59555000D01*
G75*
G02*
X153485000Y-59420000I135000J0D01*
G01*
X153855000Y-59420000D01*
G75*
G02*
X153990000Y-59555000I0J-135000D01*
G01*
X153990000Y-59825000D01*
G75*
G02*
X153855000Y-59960000I-135000J0D01*
G01*
G37*
%TD.AperFunction*%
%TD*%
%TO.P,R5,2*%
%TO.N,GND*%
%TA.AperFunction,SMDPad,CuDef*%
G36*
G01*
X151015000Y-74110000D02*
X151015000Y-74480000D01*
G75*
G02*
X150880000Y-74615000I-135000J0D01*
G01*
X150610000Y-74615000D01*
G75*
G02*
X150475000Y-74480000I0J135000D01*
G01*
X150475000Y-74110000D01*
G75*
G02*
X150610000Y-73975000I135000J0D01*
G01*
X150880000Y-73975000D01*
G75*
G02*
X151015000Y-74110000I0J-135000D01*
G01*
G37*
%TD.AperFunction*%
%TO.P,R5,1*%
%TO.N,Net-(C7-Pad2)*%
%TA.AperFunction,SMDPad,CuDef*%
G36*
G01*
X152035000Y-74110000D02*
X152035000Y-74480000D01*
G75*
G02*
X151900000Y-74615000I-135000J0D01*
G01*
X151630000Y-74615000D01*
G75*
G02*
X151495000Y-74480000I0J135000D01*
G01*
X151495000Y-74110000D01*
G75*
G02*
X151630000Y-73975000I135000J0D01*
G01*
X151900000Y-73975000D01*
G75*
G02*
X152035000Y-74110000I0J-135000D01*
G01*
G37*
%TD.AperFunction*%
%TD*%
%TO.P,R6,1*%
%TO.N,7*%
%TA.AperFunction,SMDPad,CuDef*%
G36*
G01*
X155125000Y-63010000D02*
X154755000Y-63010000D01*
G75*
G02*
X154620000Y-62875000I0J135000D01*
G01*
X154620000Y-62605000D01*
G75*
G02*
X154755000Y-62470000I135000J0D01*
G01*
X155125000Y-62470000D01*
G75*
G02*
X155260000Y-62605000I0J-135000D01*
G01*
X155260000Y-62875000D01*
G75*
G02*
X155125000Y-63010000I-135000J0D01*
G01*
G37*
%TD.AperFunction*%
%TO.P,R6,2*%
%TO.N,6*%
%TA.AperFunction,SMDPad,CuDef*%
G36*
G01*
X155125000Y-61990000D02*
X154755000Y-61990000D01*
G75*
G02*
X154620000Y-61855000I0J135000D01*
G01*
X154620000Y-61585000D01*
G75*
G02*
X154755000Y-61450000I135000J0D01*
G01*
X155125000Y-61450000D01*
G75*
G02*
X155260000Y-61585000I0J-135000D01*
G01*
X155260000Y-61855000D01*
G75*
G02*
X155125000Y-61990000I-135000J0D01*
G01*
G37*
%TD.AperFunction*%
%TD*%
%TO.P,R7,1*%
%TO.N,Net-(C10-Pad2)*%
%TA.AperFunction,SMDPad,CuDef*%
G36*
G01*
X154702000Y-66617000D02*
X154702000Y-66987000D01*
G75*
G02*
X154567000Y-67122000I-135000J0D01*
G01*
X154297000Y-67122000D01*
G75*
G02*
X154162000Y-66987000I0J135000D01*
G01*
X154162000Y-66617000D01*
G75*
G02*
X154297000Y-66482000I135000J0D01*
G01*
X154567000Y-66482000D01*
G75*
G02*
X154702000Y-66617000I0J-135000D01*
G01*
G37*
%TD.AperFunction*%
%TO.P,R7,2*%
%TO.N,GND*%
%TA.AperFunction,SMDPad,CuDef*%
G36*
G01*
X153682000Y-66617000D02*
X153682000Y-66987000D01*
G75*
G02*
X153547000Y-67122000I-135000J0D01*
G01*
X153277000Y-67122000D01*
G75*
G02*
X153142000Y-66987000I0J135000D01*
G01*
X153142000Y-66617000D01*
G75*
G02*
X153277000Y-66482000I135000J0D01*
G01*
X153547000Y-66482000D01*
G75*
G02*
X153682000Y-66617000I0J-135000D01*
G01*
G37*
%TD.AperFunction*%
%TD*%
%TO.P,R8,2*%
%TO.N,8*%
%TA.AperFunction,SMDPad,CuDef*%
G36*
G01*
X159810000Y-65045000D02*
X159810000Y-64495000D01*
G75*
G02*
X160010000Y-64295000I200000J0D01*
G01*
X160410000Y-64295000D01*
G75*
G02*
X160610000Y-64495000I0J-200000D01*
G01*
X160610000Y-65045000D01*
G75*
G02*
X160410000Y-65245000I-200000J0D01*
G01*
X160010000Y-65245000D01*
G75*
G02*
X159810000Y-65045000I0J200000D01*
G01*
G37*
%TD.AperFunction*%
%TO.P,R8,1*%
%TO.N,9*%
%TA.AperFunction,SMDPad,CuDef*%
G36*
G01*
X158160000Y-65045000D02*
X158160000Y-64495000D01*
G75*
G02*
X158360000Y-64295000I200000J0D01*
G01*
X158760000Y-64295000D01*
G75*
G02*
X158960000Y-64495000I0J-200000D01*
G01*
X158960000Y-65045000D01*
G75*
G02*
X158760000Y-65245000I-200000J0D01*
G01*
X158360000Y-65245000D01*
G75*
G02*
X158160000Y-65045000I0J200000D01*
G01*
G37*
%TD.AperFunction*%
%TD*%
%TO.P,R9,1*%
%TO.N,+BATT*%
%TA.AperFunction,SMDPad,CuDef*%
G36*
G01*
X154285000Y-71305000D02*
X154285000Y-70935000D01*
G75*
G02*
X154420000Y-70800000I135000J0D01*
G01*
X154690000Y-70800000D01*
G75*
G02*
X154825000Y-70935000I0J-135000D01*
G01*
X154825000Y-71305000D01*
G75*
G02*
X154690000Y-71440000I-135000J0D01*
G01*
X154420000Y-71440000D01*
G75*
G02*
X154285000Y-71305000I0J135000D01*
G01*
G37*
%TD.AperFunction*%
%TO.P,R9,2*%
%TO.N,Net-(C14-Pad1)*%
%TA.AperFunction,SMDPad,CuDef*%
G36*
G01*
X155305000Y-71305000D02*
X155305000Y-70935000D01*
G75*
G02*
X155440000Y-70800000I135000J0D01*
G01*
X155710000Y-70800000D01*
G75*
G02*
X155845000Y-70935000I0J-135000D01*
G01*
X155845000Y-71305000D01*
G75*
G02*
X155710000Y-71440000I-135000J0D01*
G01*
X155440000Y-71440000D01*
G75*
G02*
X155305000Y-71305000I0J135000D01*
G01*
G37*
%TD.AperFunction*%
%TD*%
%TO.P,R10,1*%
%TO.N,Net-(C14-Pad1)*%
%TA.AperFunction,SMDPad,CuDef*%
G36*
G01*
X160470000Y-72245000D02*
X160840000Y-72245000D01*
G75*
G02*
X160975000Y-72380000I0J-135000D01*
G01*
X160975000Y-72650000D01*
G75*
G02*
X160840000Y-72785000I-135000J0D01*
G01*
X160470000Y-72785000D01*
G75*
G02*
X160335000Y-72650000I0J135000D01*
G01*
X160335000Y-72380000D01*
G75*
G02*
X160470000Y-72245000I135000J0D01*
G01*
G37*
%TD.AperFunction*%
%TO.P,R10,2*%
%TO.N,Net-(D3-Pad2)*%
%TA.AperFunction,SMDPad,CuDef*%
G36*
G01*
X160470000Y-73265000D02*
X160840000Y-73265000D01*
G75*
G02*
X160975000Y-73400000I0J-135000D01*
G01*
X160975000Y-73670000D01*
G75*
G02*
X160840000Y-73805000I-135000J0D01*
G01*
X160470000Y-73805000D01*
G75*
G02*
X160335000Y-73670000I0J135000D01*
G01*
X160335000Y-73400000D01*
G75*
G02*
X160470000Y-73265000I135000J0D01*
G01*
G37*
%TD.AperFunction*%
%TD*%
%TO.P,R11,2*%
%TO.N,Net-(J3-PadA1)*%
%TA.AperFunction,SMDPad,CuDef*%
G36*
G01*
X159040000Y-87585000D02*
X159040000Y-87215000D01*
G75*
G02*
X159175000Y-87080000I135000J0D01*
G01*
X159445000Y-87080000D01*
G75*
G02*
X159580000Y-87215000I0J-135000D01*
G01*
X159580000Y-87585000D01*
G75*
G02*
X159445000Y-87720000I-135000J0D01*
G01*
X159175000Y-87720000D01*
G75*
G02*
X159040000Y-87585000I0J135000D01*
G01*
G37*
%TD.AperFunction*%
%TO.P,R11,1*%
%TO.N,Net-(R11-Pad1)*%
%TA.AperFunction,SMDPad,CuDef*%
G36*
G01*
X158020000Y-87585000D02*
X158020000Y-87215000D01*
G75*
G02*
X158155000Y-87080000I135000J0D01*
G01*
X158425000Y-87080000D01*
G75*
G02*
X158560000Y-87215000I0J-135000D01*
G01*
X158560000Y-87585000D01*
G75*
G02*
X158425000Y-87720000I-135000J0D01*
G01*
X158155000Y-87720000D01*
G75*
G02*
X158020000Y-87585000I0J135000D01*
G01*
G37*
%TD.AperFunction*%
%TD*%
%TO.P,R12,2*%
%TO.N,13*%
%TA.AperFunction,SMDPad,CuDef*%
G36*
G01*
X163645000Y-56120000D02*
X164015000Y-56120000D01*
G75*
G02*
X164150000Y-56255000I0J-135000D01*
G01*
X164150000Y-56525000D01*
G75*
G02*
X164015000Y-56660000I-135000J0D01*
G01*
X163645000Y-56660000D01*
G75*
G02*
X163510000Y-56525000I0J135000D01*
G01*
X163510000Y-56255000D01*
G75*
G02*
X163645000Y-56120000I135000J0D01*
G01*
G37*
%TD.AperFunction*%
%TO.P,R12,1*%
%TO.N,14*%
%TA.AperFunction,SMDPad,CuDef*%
G36*
G01*
X163645000Y-55100000D02*
X164015000Y-55100000D01*
G75*
G02*
X164150000Y-55235000I0J-135000D01*
G01*
X164150000Y-55505000D01*
G75*
G02*
X164015000Y-55640000I-135000J0D01*
G01*
X163645000Y-55640000D01*
G75*
G02*
X163510000Y-55505000I0J135000D01*
G01*
X163510000Y-55235000D01*
G75*
G02*
X163645000Y-55100000I135000J0D01*
G01*
G37*
%TD.AperFunction*%
%TD*%
D15*
%TO.P,GND,1*%
%TO.N,GND*%
X140970000Y-76835000D03*
%TD*%
%TO.P,BATT,1*%
%TO.N,+BATT*%
X137160000Y-76835000D03*
%TD*%
D16*
%TO.P,IC3,1*%
%TO.N,Net-(AT1-Pad2)*%
X136525000Y-59095000D03*
%TO.P,IC3,2*%
%TO.N,Net-(AT1-Pad3)*%
X136525000Y-64095000D03*
%TD*%
%TO.P,C4,1*%
%TO.N,+BATT*%
%TA.AperFunction,SMDPad,CuDef*%
G36*
G01*
X145918000Y-50588000D02*
X145918000Y-49488000D01*
G75*
G02*
X146168000Y-49238000I250000J0D01*
G01*
X149168000Y-49238000D01*
G75*
G02*
X149418000Y-49488000I0J-250000D01*
G01*
X149418000Y-50588000D01*
G75*
G02*
X149168000Y-50838000I-250000J0D01*
G01*
X146168000Y-50838000D01*
G75*
G02*
X145918000Y-50588000I0J250000D01*
G01*
G37*
%TD.AperFunction*%
%TO.P,C4,2*%
%TO.N,3*%
%TA.AperFunction,SMDPad,CuDef*%
G36*
G01*
X151318000Y-50588000D02*
X151318000Y-49488000D01*
G75*
G02*
X151568000Y-49238000I250000J0D01*
G01*
X154568000Y-49238000D01*
G75*
G02*
X154818000Y-49488000I0J-250000D01*
G01*
X154818000Y-50588000D01*
G75*
G02*
X154568000Y-50838000I-250000J0D01*
G01*
X151568000Y-50838000D01*
G75*
G02*
X151318000Y-50588000I0J250000D01*
G01*
G37*
%TD.AperFunction*%
%TD*%
%TO.P,C17,2*%
%TO.N,GND*%
%TA.AperFunction,SMDPad,CuDef*%
G36*
G01*
X162748000Y-50588000D02*
X162748000Y-49488000D01*
G75*
G02*
X162998000Y-49238000I250000J0D01*
G01*
X165998000Y-49238000D01*
G75*
G02*
X166248000Y-49488000I0J-250000D01*
G01*
X166248000Y-50588000D01*
G75*
G02*
X165998000Y-50838000I-250000J0D01*
G01*
X162998000Y-50838000D01*
G75*
G02*
X162748000Y-50588000I0J250000D01*
G01*
G37*
%TD.AperFunction*%
%TO.P,C17,1*%
%TO.N,3*%
%TA.AperFunction,SMDPad,CuDef*%
G36*
G01*
X157348000Y-50588000D02*
X157348000Y-49488000D01*
G75*
G02*
X157598000Y-49238000I250000J0D01*
G01*
X160598000Y-49238000D01*
G75*
G02*
X160848000Y-49488000I0J-250000D01*
G01*
X160848000Y-50588000D01*
G75*
G02*
X160598000Y-50838000I-250000J0D01*
G01*
X157598000Y-50838000D01*
G75*
G02*
X157348000Y-50588000I0J250000D01*
G01*
G37*
%TD.AperFunction*%
%TD*%
%TO.P,C18,1*%
%TO.N,+BATT*%
%TA.AperFunction,SMDPad,CuDef*%
G36*
G01*
X143722000Y-80546000D02*
X144822000Y-80546000D01*
G75*
G02*
X145072000Y-80796000I0J-250000D01*
G01*
X145072000Y-83796000D01*
G75*
G02*
X144822000Y-84046000I-250000J0D01*
G01*
X143722000Y-84046000D01*
G75*
G02*
X143472000Y-83796000I0J250000D01*
G01*
X143472000Y-80796000D01*
G75*
G02*
X143722000Y-80546000I250000J0D01*
G01*
G37*
%TD.AperFunction*%
%TO.P,C18,2*%
%TO.N,GND*%
%TA.AperFunction,SMDPad,CuDef*%
G36*
G01*
X143722000Y-85946000D02*
X144822000Y-85946000D01*
G75*
G02*
X145072000Y-86196000I0J-250000D01*
G01*
X145072000Y-89196000D01*
G75*
G02*
X144822000Y-89446000I-250000J0D01*
G01*
X143722000Y-89446000D01*
G75*
G02*
X143472000Y-89196000I0J250000D01*
G01*
X143472000Y-86196000D01*
G75*
G02*
X143722000Y-85946000I250000J0D01*
G01*
G37*
%TD.AperFunction*%
%TD*%
%TO.P,R13,2*%
%TO.N,3*%
%TA.AperFunction,SMDPad,CuDef*%
G36*
G01*
X155009000Y-53582000D02*
X155379000Y-53582000D01*
G75*
G02*
X155514000Y-53717000I0J-135000D01*
G01*
X155514000Y-53987000D01*
G75*
G02*
X155379000Y-54122000I-135000J0D01*
G01*
X155009000Y-54122000D01*
G75*
G02*
X154874000Y-53987000I0J135000D01*
G01*
X154874000Y-53717000D01*
G75*
G02*
X155009000Y-53582000I135000J0D01*
G01*
G37*
%TD.AperFunction*%
%TO.P,R13,1*%
%TO.N,+BATT*%
%TA.AperFunction,SMDPad,CuDef*%
G36*
G01*
X155009000Y-52562000D02*
X155379000Y-52562000D01*
G75*
G02*
X155514000Y-52697000I0J-135000D01*
G01*
X155514000Y-52967000D01*
G75*
G02*
X155379000Y-53102000I-135000J0D01*
G01*
X155009000Y-53102000D01*
G75*
G02*
X154874000Y-52967000I0J135000D01*
G01*
X154874000Y-52697000D01*
G75*
G02*
X155009000Y-52562000I135000J0D01*
G01*
G37*
%TD.AperFunction*%
%TD*%
%TO.P,R14,1*%
%TO.N,3*%
%TA.AperFunction,SMDPad,CuDef*%
G36*
G01*
X156649000Y-54122000D02*
X156279000Y-54122000D01*
G75*
G02*
X156144000Y-53987000I0J135000D01*
G01*
X156144000Y-53717000D01*
G75*
G02*
X156279000Y-53582000I135000J0D01*
G01*
X156649000Y-53582000D01*
G75*
G02*
X156784000Y-53717000I0J-135000D01*
G01*
X156784000Y-53987000D01*
G75*
G02*
X156649000Y-54122000I-135000J0D01*
G01*
G37*
%TD.AperFunction*%
%TO.P,R14,2*%
%TO.N,GND*%
%TA.AperFunction,SMDPad,CuDef*%
G36*
G01*
X156649000Y-53102000D02*
X156279000Y-53102000D01*
G75*
G02*
X156144000Y-52967000I0J135000D01*
G01*
X156144000Y-52697000D01*
G75*
G02*
X156279000Y-52562000I135000J0D01*
G01*
X156649000Y-52562000D01*
G75*
G02*
X156784000Y-52697000I0J-135000D01*
G01*
X156784000Y-52967000D01*
G75*
G02*
X156649000Y-53102000I-135000J0D01*
G01*
G37*
%TD.AperFunction*%
%TD*%
D17*
%TO.P,J1,2*%
%TO.N,GND*%
X137600000Y-72000000D03*
D18*
%TO.P,J1,1*%
%TO.N,Net-(D1-Pad1)*%
X137600000Y-70000000D03*
%TD*%
%TO.P,J2,1*%
%TO.N,Net-(C14-Pad1)*%
X167400000Y-71800000D03*
D17*
%TO.P,J2,2*%
%TO.N,Net-(D3-Pad2)*%
X167400000Y-69800000D03*
%TD*%
D19*
%TO.P,J3,A1*%
%TO.N,Net-(J3-PadA1)*%
X164050000Y-87400000D03*
%TO.P,J3,A2*%
%TO.N,Net-(D3-Pad2)*%
X170750000Y-87400000D03*
%TO.P,J3,A3*%
%TO.N,Net-(J3-PadA1)*%
X167550000Y-87400000D03*
%TO.P,J3,B1*%
%TO.N,N/C*%
X164050000Y-81100000D03*
%TO.P,J3,B2*%
X170750000Y-81100000D03*
%TD*%
D20*
%TO.P,RV1,1*%
%TO.N,13*%
X170350000Y-61800000D03*
D21*
%TO.P,RV1,2*%
X169200000Y-57800000D03*
D20*
%TO.P,RV1,3*%
%TO.N,Net-(C13-Pad2)*%
X168050000Y-61800000D03*
%TD*%
%TO.P,RV2,3*%
%TO.N,Net-(C14-Pad1)*%
X152950000Y-83400000D03*
D21*
%TO.P,RV2,2*%
%TO.N,Net-(R11-Pad1)*%
X151800000Y-87400000D03*
D20*
%TO.P,RV2,1*%
%TO.N,N/C*%
X150650000Y-83400000D03*
%TD*%
D18*
%TO.P,J4,1*%
%TO.N,+BATT*%
X137600000Y-84200000D03*
D17*
%TO.P,J4,2*%
%TO.N,GND*%
X137600000Y-86200000D03*
%TD*%
D22*
%TO.N,Net-(C14-Pad1)*%
X160274000Y-77216000D03*
X159893000Y-72517000D03*
%TO.N,14*%
X146050000Y-63500000D03*
X160528000Y-55245000D03*
%TO.N,Net-(D3-Pad2)*%
X160782000Y-74295000D03*
%TO.N,3*%
X153670000Y-52324000D03*
X154432000Y-53848000D03*
%TO.N,+BATT*%
X159200000Y-59000000D03*
X154400000Y-69800000D03*
X145000000Y-50600000D03*
X147600000Y-62600000D03*
%TO.N,GND*%
X154559000Y-58674000D03*
X145669000Y-61595000D03*
X160528000Y-58928000D03*
X166624000Y-52832000D03*
X151892000Y-53340000D03*
X156464000Y-52070000D03*
X142800000Y-60600000D03*
X143000000Y-64800000D03*
X153400000Y-65800000D03*
X163200000Y-67400000D03*
X146200000Y-71200000D03*
X147400000Y-73800000D03*
X148400000Y-76200000D03*
X149600000Y-74200000D03*
X152600000Y-74400000D03*
%TD*%
D23*
%TO.N,Net-(AT1-Pad1)*%
X144810000Y-53340000D02*
X145090000Y-53340000D01*
X144134000Y-53340000D02*
X144810000Y-53340000D01*
X142704000Y-54770000D02*
X144134000Y-53340000D01*
X142704000Y-55245000D02*
X142704000Y-54770000D01*
%TO.N,Net-(AT1-Pad2)*%
X139105000Y-56515000D02*
X142704000Y-56515000D01*
X136525000Y-59095000D02*
X139105000Y-56515000D01*
%TO.N,Net-(AT1-Pad3)*%
X136525000Y-62716142D02*
X136525000Y-64095000D01*
X141456142Y-57785000D02*
X136525000Y-62716142D01*
X142704000Y-57785000D02*
X141456142Y-57785000D01*
%TO.N,Net-(AT1-Pad5)*%
X150051000Y-59019000D02*
X150015000Y-59055000D01*
X150051000Y-57150000D02*
X150051000Y-59019000D01*
X149040000Y-59055000D02*
X150015000Y-59055000D01*
X148126000Y-59055000D02*
X149040000Y-59055000D01*
%TO.N,Net-(AT1-Pad7)*%
X150015000Y-54920000D02*
X150015000Y-54610000D01*
X149040000Y-56515000D02*
X150015000Y-55540000D01*
X150015000Y-55540000D02*
X150015000Y-54920000D01*
X148126000Y-56515000D02*
X149040000Y-56515000D01*
%TO.N,Net-(AT1-Pad8)*%
X146050000Y-53340000D02*
X147066000Y-53340000D01*
X148126000Y-54400000D02*
X148126000Y-55245000D01*
X147066000Y-53340000D02*
X148126000Y-54400000D01*
%TO.N,Net-(C3-Pad1)*%
X152880000Y-56670000D02*
X153670000Y-56670000D01*
X151701000Y-57150000D02*
X152400000Y-57150000D01*
X152400000Y-57150000D02*
X152880000Y-56670000D01*
%TO.N,Net-(C6-Pad2)*%
X150975000Y-59055000D02*
X151765000Y-59055000D01*
X152400000Y-59690000D02*
X153670000Y-59690000D01*
X151765000Y-59055000D02*
X152400000Y-59690000D01*
X150975000Y-60805000D02*
X150975000Y-59055000D01*
X152555000Y-61595000D02*
X151765000Y-61595000D01*
X151765000Y-61595000D02*
X150975000Y-60805000D01*
X152555000Y-62865000D02*
X152555000Y-61595000D01*
%TO.N,Net-(C7-Pad2)*%
X151780000Y-73010000D02*
X151765000Y-73025000D01*
X153675000Y-73010000D02*
X151780000Y-73010000D01*
X151765000Y-74295000D02*
X151765000Y-73025000D01*
X151595000Y-74465000D02*
X151765000Y-74295000D01*
X151595000Y-76200000D02*
X151595000Y-74465000D01*
%TO.N,Net-(C7-Pad1)*%
X150678000Y-72898000D02*
X150805000Y-73025000D01*
X149354000Y-72898000D02*
X150678000Y-72898000D01*
%TO.N,6*%
X156548000Y-61720000D02*
X156673000Y-61595000D01*
X154940000Y-61720000D02*
X156548000Y-61720000D01*
X153640000Y-61720000D02*
X153515000Y-61595000D01*
X154940000Y-61720000D02*
X153640000Y-61720000D01*
%TO.N,7*%
X153515000Y-62865000D02*
X156673000Y-62865000D01*
X154815000Y-62865000D02*
X154940000Y-62740000D01*
X153515000Y-62865000D02*
X154815000Y-62865000D01*
X156690000Y-62882000D02*
X156673000Y-62865000D01*
X156690000Y-64770000D02*
X156690000Y-62882000D01*
%TO.N,Net-(C10-Pad2)*%
X155943000Y-66802000D02*
X156070000Y-66675000D01*
X154432000Y-66802000D02*
X155943000Y-66802000D01*
X155730000Y-64770000D02*
X155730000Y-65306000D01*
X156070000Y-65646000D02*
X156070000Y-66675000D01*
X155730000Y-65306000D02*
X156070000Y-65646000D01*
X160020000Y-68085000D02*
X156604000Y-68085000D01*
X156070000Y-67551000D02*
X156070000Y-66675000D01*
X156604000Y-68085000D02*
X156070000Y-67551000D01*
%TO.N,9*%
X157620000Y-66675000D02*
X158369000Y-66675000D01*
X158560000Y-66484000D02*
X158560000Y-64770000D01*
X158369000Y-66675000D02*
X158560000Y-66484000D01*
X161184500Y-61595000D02*
X162097000Y-61595000D01*
X158560000Y-64219500D02*
X161184500Y-61595000D01*
X158560000Y-64770000D02*
X158560000Y-64219500D01*
%TO.N,8*%
X163009500Y-62865000D02*
X163985000Y-62865000D01*
X162097000Y-62865000D02*
X163009500Y-62865000D01*
X160210000Y-64295000D02*
X160210000Y-64770000D01*
X160210000Y-63839500D02*
X160210000Y-64295000D01*
X161184500Y-62865000D02*
X160210000Y-63839500D01*
X162097000Y-62865000D02*
X161184500Y-62865000D01*
X160020000Y-64960000D02*
X160210000Y-64770000D01*
X160020000Y-66535000D02*
X160020000Y-64960000D01*
%TO.N,Net-(C13-Pad2)*%
X164945000Y-62865000D02*
X165535000Y-62865000D01*
X166600000Y-61800000D02*
X168050000Y-61800000D01*
X165535000Y-62865000D02*
X166600000Y-61800000D01*
%TO.N,Net-(C14-Pad1)*%
X162795000Y-72515000D02*
X163195000Y-72115000D01*
X160655000Y-72515000D02*
X162795000Y-72515000D01*
X160063000Y-71290000D02*
X158115000Y-71290000D01*
X160655000Y-72515000D02*
X160655000Y-71882000D01*
X160655000Y-71882000D02*
X160063000Y-71290000D01*
X157945000Y-71120000D02*
X158115000Y-71290000D01*
X155575000Y-71120000D02*
X157945000Y-71120000D01*
X160274000Y-75613500D02*
X160322500Y-75565000D01*
X160274000Y-77216000D02*
X160274000Y-75613500D01*
X160655000Y-72515000D02*
X159895000Y-72515000D01*
X159895000Y-72515000D02*
X159893000Y-72517000D01*
X152950000Y-83400000D02*
X156000000Y-83400000D01*
X160274000Y-79126000D02*
X160274000Y-77216000D01*
X156000000Y-83400000D02*
X160274000Y-79126000D01*
X167085000Y-72115000D02*
X167400000Y-71800000D01*
X163195000Y-72115000D02*
X167085000Y-72115000D01*
%TO.N,13*%
X162222000Y-56390000D02*
X162097000Y-56515000D01*
X163830000Y-56390000D02*
X162222000Y-56390000D01*
X165070000Y-56390000D02*
X165100000Y-56360000D01*
X163830000Y-56390000D02*
X165070000Y-56390000D01*
X165100000Y-56360000D02*
X166215000Y-56360000D01*
X169200000Y-57800000D02*
X169200000Y-57000000D01*
X169200000Y-57800000D02*
X168000000Y-57800000D01*
X166560000Y-56360000D02*
X166215000Y-56360000D01*
X168000000Y-57800000D02*
X166560000Y-56360000D01*
X169200000Y-57800000D02*
X170400000Y-57800000D01*
X170400000Y-57800000D02*
X170600000Y-58000000D01*
X170600000Y-58000000D02*
X170600000Y-60200000D01*
X170350000Y-60450000D02*
X170350000Y-61800000D01*
X170600000Y-60200000D02*
X170350000Y-60450000D01*
%TO.N,14*%
X164945000Y-55245000D02*
X165100000Y-55400000D01*
X144608000Y-63500000D02*
X146050000Y-63500000D01*
X160528000Y-55245000D02*
X162097000Y-55245000D01*
X165070000Y-55370000D02*
X165100000Y-55400000D01*
X163830000Y-55370000D02*
X165070000Y-55370000D01*
X162222000Y-55370000D02*
X162097000Y-55245000D01*
X163830000Y-55370000D02*
X162222000Y-55370000D01*
%TO.N,Net-(D1-Pad1)*%
X142875000Y-72180000D02*
X142875000Y-70995000D01*
X142395000Y-73660000D02*
X142395000Y-72660000D01*
X142395000Y-72660000D02*
X142875000Y-72180000D01*
X142875000Y-70995000D02*
X140395000Y-70995000D01*
X139400000Y-70000000D02*
X140395000Y-70995000D01*
X137600000Y-70000000D02*
X139400000Y-70000000D01*
%TO.N,Net-(D3-Pad2)*%
X160610000Y-73490000D02*
X160655000Y-73535000D01*
X158115000Y-73490000D02*
X160610000Y-73490000D01*
X156888000Y-73490000D02*
X158115000Y-73490000D01*
X155575000Y-73660000D02*
X156718000Y-73660000D01*
X156718000Y-73660000D02*
X156888000Y-73490000D01*
X158447500Y-75565000D02*
X158447500Y-74627500D01*
X158115000Y-74295000D02*
X158115000Y-73490000D01*
X158447500Y-74627500D02*
X158115000Y-74295000D01*
X160655000Y-73535000D02*
X160655000Y-74168000D01*
X160655000Y-74168000D02*
X160782000Y-74295000D01*
X170750000Y-87400000D02*
X167400000Y-84050000D01*
X167400000Y-80913000D02*
X160782000Y-74295000D01*
X167400000Y-84050000D02*
X167400000Y-80913000D01*
%TO.N,Net-(IC1-Pad6)*%
X144483000Y-69975000D02*
X144608000Y-69850000D01*
X142875000Y-69975000D02*
X144483000Y-69975000D01*
X148334000Y-72898000D02*
X148334000Y-71880000D01*
X146304000Y-69850000D02*
X144608000Y-69850000D01*
X148334000Y-71880000D02*
X146304000Y-69850000D01*
%TO.N,Net-(R11-Pad1)*%
X151800000Y-87400000D02*
X158290000Y-87400000D01*
%TO.N,3*%
X157585500Y-57785000D02*
X156673000Y-57785000D01*
X158374000Y-56996500D02*
X157585500Y-57785000D01*
X157574000Y-50038000D02*
X158374000Y-50838000D01*
X155194000Y-53852000D02*
X156464000Y-53852000D01*
X159098000Y-50038000D02*
X153068000Y-50038000D01*
X158374000Y-56996500D02*
X158374000Y-54488000D01*
X157738000Y-53852000D02*
X156464000Y-53852000D01*
X158374000Y-54488000D02*
X157738000Y-53852000D01*
X153068000Y-51722000D02*
X153670000Y-52324000D01*
X153068000Y-50038000D02*
X153068000Y-51722000D01*
X155190000Y-53848000D02*
X155194000Y-53852000D01*
X154432000Y-53848000D02*
X155190000Y-53848000D01*
%TO.N,1*%
X163009500Y-57785000D02*
X163576000Y-58351500D01*
X162097000Y-57785000D02*
X163009500Y-57785000D01*
X163009500Y-60325000D02*
X162097000Y-60325000D01*
X163576000Y-59758500D02*
X163009500Y-60325000D01*
X163576000Y-58351500D02*
X163576000Y-59758500D01*
X156673000Y-60325000D02*
X162097000Y-60325000D01*
X156673000Y-55245000D02*
X156673000Y-56515000D01*
X155760500Y-60325000D02*
X155194000Y-59758500D01*
X156673000Y-60325000D02*
X155760500Y-60325000D01*
X155760500Y-56515000D02*
X156673000Y-56515000D01*
X155194000Y-57081500D02*
X155760500Y-56515000D01*
X155194000Y-59758500D02*
X155194000Y-57081500D01*
%TO.N,+BATT*%
X137795000Y-77470000D02*
X137160000Y-76835000D01*
X144018000Y-82550000D02*
X144272000Y-82296000D01*
D24*
X137600000Y-84200000D02*
X139600000Y-84200000D01*
X141504000Y-82296000D02*
X144272000Y-82296000D01*
X139600000Y-84200000D02*
X141504000Y-82296000D01*
X147094002Y-82296000D02*
X144272000Y-82296000D01*
X154555000Y-74835002D02*
X147094002Y-82296000D01*
X154555000Y-71120000D02*
X154555000Y-74835002D01*
X150032000Y-63500000D02*
X150032000Y-62232000D01*
X149395000Y-61595000D02*
X147645000Y-61595000D01*
X150032000Y-62232000D02*
X149395000Y-61595000D01*
X147645000Y-61595000D02*
X147645000Y-60845000D01*
X147645000Y-60845000D02*
X146200000Y-59400000D01*
X146200000Y-59400000D02*
X146200000Y-58400000D01*
X146815000Y-57785000D02*
X148127000Y-57785000D01*
X146200000Y-58400000D02*
X146815000Y-57785000D01*
X155151999Y-52874001D02*
X155194000Y-52832000D01*
X159145000Y-59055000D02*
X159200000Y-59000000D01*
X156673000Y-59055000D02*
X159145000Y-59055000D01*
X154555000Y-69955000D02*
X154400000Y-69800000D01*
X154555000Y-71120000D02*
X154555000Y-69955000D01*
X147668000Y-50038000D02*
X147668000Y-51268000D01*
X147668000Y-51268000D02*
X148800000Y-52400000D01*
X148800000Y-52400000D02*
X152800000Y-52400000D01*
X153274001Y-52874001D02*
X155151999Y-52874001D01*
X152800000Y-52400000D02*
X153274001Y-52874001D01*
X145562000Y-50038000D02*
X145000000Y-50600000D01*
X147668000Y-50038000D02*
X145562000Y-50038000D01*
X147600000Y-61640000D02*
X147645000Y-61595000D01*
X147600000Y-62600000D02*
X147600000Y-61640000D01*
X151094500Y-63500000D02*
X152400000Y-64805500D01*
X150032000Y-63500000D02*
X151094500Y-63500000D01*
X152400000Y-67800000D02*
X154400000Y-69800000D01*
X152400000Y-64805500D02*
X152400000Y-67800000D01*
D23*
%TO.N,Net-(J3-PadA1)*%
X159310000Y-87400000D02*
X164050000Y-87400000D01*
X164050000Y-87400000D02*
X167550000Y-87400000D01*
%TO.N,GND*%
X153670000Y-57630000D02*
X153670000Y-58670000D01*
X150975000Y-54610000D02*
X153162000Y-54610000D01*
X153162000Y-54610000D02*
X154813000Y-56261000D01*
X154813000Y-56261000D02*
X154813000Y-57277000D01*
X154460000Y-57630000D02*
X153670000Y-57630000D01*
X154813000Y-57277000D02*
X154460000Y-57630000D01*
X153670000Y-58670000D02*
X154555000Y-58670000D01*
X154555000Y-58670000D02*
X154559000Y-58674000D01*
X145669000Y-61595000D02*
X146685000Y-61595000D01*
X156464000Y-52832000D02*
X163576000Y-52832000D01*
X164498000Y-51910000D02*
X164498000Y-50038000D01*
X163576000Y-52832000D02*
X164498000Y-51910000D01*
X164498000Y-50038000D02*
X166624000Y-50038000D01*
X166624000Y-50038000D02*
X166624000Y-52832000D01*
X150975000Y-54257000D02*
X151892000Y-53340000D01*
X150975000Y-54610000D02*
X150975000Y-54257000D01*
X156464000Y-52070000D02*
X156464000Y-52832000D01*
D24*
X137600000Y-86200000D02*
X139600000Y-86200000D01*
X141096000Y-87696000D02*
X144272000Y-87696000D01*
X139600000Y-86200000D02*
X141096000Y-87696000D01*
X142703000Y-60503000D02*
X142800000Y-60600000D01*
X142703000Y-59055000D02*
X142703000Y-60503000D01*
X143030000Y-64770000D02*
X143000000Y-64800000D01*
X144608000Y-64770000D02*
X143030000Y-64770000D01*
X153412000Y-65812000D02*
X153400000Y-65800000D01*
X153412000Y-66802000D02*
X153412000Y-65812000D01*
X163195000Y-67405000D02*
X163200000Y-67400000D01*
X163195000Y-69215000D02*
X163195000Y-67405000D01*
X146120000Y-71120000D02*
X146200000Y-71200000D01*
X144608000Y-71120000D02*
X146120000Y-71120000D01*
X147260000Y-73660000D02*
X147400000Y-73800000D01*
X145895000Y-73660000D02*
X147260000Y-73660000D01*
X149395000Y-76200000D02*
X148400000Y-76200000D01*
X149695000Y-74295000D02*
X149600000Y-74200000D01*
X150745000Y-74295000D02*
X149695000Y-74295000D01*
X152690000Y-74310000D02*
X152600000Y-74400000D01*
X153675000Y-74310000D02*
X152690000Y-74310000D01*
X137600000Y-73465000D02*
X140970000Y-76835000D01*
X137600000Y-72000000D02*
X137600000Y-73465000D01*
%TD*%
M02*
