M48
; DRILL file {KiCad (5.1.8)-1} date 02/07/21 14:07:53
; FORMAT={-:-/ absolute / inch / decimal}
; #@! TF.CreationDate,2021-02-07T14:07:53+00:00
; #@! TF.GenerationSoftware,Kicad,Pcbnew,(5.1.8)-1
FMAT,2
INCH
T1C0.0118
T2C0.0354
T3C0.0394
T4C0.0492
T5C0.0601
T6C0.0630
%
G90
G05
T1
X5.622Y-2.3858
X5.6299Y-2.5512
X5.7087Y-1.9921
X5.735Y-2.425
X5.75Y-2.5
X5.7559Y-2.8031
X5.8031Y-2.9055
X5.811Y-2.4646
X5.8425Y-3.0
X5.8898Y-2.9213
X5.98Y-2.1
X6.0079Y-2.9291
X6.0394Y-2.5906
X6.05Y-2.06
X6.0787Y-2.748
X6.08Y-2.12
X6.085Y-2.31
X6.16Y-2.05
X6.2677Y-2.3228
X6.295Y-2.855
X6.31Y-3.04
X6.32Y-2.175
X6.32Y-2.32
X6.33Y-2.925
X6.4252Y-2.6535
X6.56Y-2.08
T2
X5.4173Y-3.315
X5.4173Y-3.3937
X6.5906Y-2.748
X6.5906Y-2.8268
X5.4173Y-2.7559
X5.4173Y-2.8346
T3
X5.4Y-3.025
X5.55Y-3.025
T4
X5.375Y-2.3266
X5.375Y-2.5234
T5
X6.4587Y-3.1929
X6.4587Y-3.4409
X6.5965Y-3.4409
X6.7224Y-3.1929
X6.7224Y-3.4409
T6
X6.4587Y-3.3169
X6.7224Y-3.3169
T0
M30
